<?xml version="1.0" encoding="utf-8" standalone="no"?>
<!DOCTYPE svg PUBLIC "-//W3C//DTD SVG 1.1//EN"
  "http://www.w3.org/Graphics/SVG/1.1/DTD/svg11.dtd">
<!-- Created with matplotlib (http://matplotlib.org/) -->
<svg height="216pt" version="1.1" viewBox="0 0 720 216" width="720pt" xmlns="http://www.w3.org/2000/svg" xmlns:xlink="http://www.w3.org/1999/xlink">
 <defs>
  <style type="text/css">
*{stroke-linecap:butt;stroke-linejoin:round;}
  </style>
 </defs>
 <g id="figure_1">
  <g id="patch_1">
   <path d="M 0 216 
L 720 216 
L 720 0 
L 0 0 
z
" style="fill:#ffffff;"/>
  </g>
  <g id="axes_1">
   <g id="patch_2">
    <path d="M 45.11 40.84 
L 706.68 40.84 
L 706.68 32.646176 
L 45.11 32.646176 
z
" style="fill:#ffffff;"/>
   </g>
   <g id="patch_3">
    <path clip-path="url(#p93454f6e6f)" d="M 75.181364 40.84 
L 227.782313 40.84 
L 227.782313 40.84 
L 75.181364 40.84 
z
" style="fill:#666666;"/>
   </g>
   <g id="patch_4">
    <path clip-path="url(#p93454f6e6f)" d="M 224.790138 40.84 
L 377.391088 40.84 
L 377.391088 40.84 
L 224.790138 40.84 
z
" style="fill:#666666;"/>
   </g>
   <g id="patch_5">
    <path clip-path="url(#p93454f6e6f)" d="M 374.398912 40.84 
L 526.999862 40.84 
L 526.999862 40.84 
L 374.398912 40.84 
z
" style="fill:#666666;"/>
   </g>
   <g id="patch_6">
    <path clip-path="url(#p93454f6e6f)" d="M 524.007687 40.84 
L 676.608636 40.84 
L 676.608636 40.84 
L 524.007687 40.84 
z
" style="fill:#666666;"/>
   </g>
   <g id="matplotlib.axis_1">
    <g id="xtick_1">
     <g id="line2d_1">
      <defs>
       <path d="M 0 0 
L 0 3.5 
" id="m76f3bc2679" style="stroke:#000000;stroke-width:0.8;"/>
      </defs>
      <g>
       <use style="stroke:#000000;stroke-width:0.8;" x="151.481839" xlink:href="#m76f3bc2679" y="40.84"/>
      </g>
     </g>
     <g id="text_1">
      <!-- B1 -->
      <defs>
       <path d="M 19.671875 34.8125 
L 19.671875 8.109375 
L 35.5 8.109375 
Q 43.453125 8.109375 47.28125 11.40625 
Q 51.125 14.703125 51.125 21.484375 
Q 51.125 28.328125 47.28125 31.5625 
Q 43.453125 34.8125 35.5 34.8125 
z
M 19.671875 64.796875 
L 19.671875 42.828125 
L 34.28125 42.828125 
Q 41.5 42.828125 45.03125 45.53125 
Q 48.578125 48.25 48.578125 53.8125 
Q 48.578125 59.328125 45.03125 62.0625 
Q 41.5 64.796875 34.28125 64.796875 
z
M 9.8125 72.90625 
L 35.015625 72.90625 
Q 46.296875 72.90625 52.390625 68.21875 
Q 58.5 63.53125 58.5 54.890625 
Q 58.5 48.1875 55.375 44.234375 
Q 52.25 40.28125 46.1875 39.3125 
Q 53.46875 37.75 57.5 32.78125 
Q 61.53125 27.828125 61.53125 20.40625 
Q 61.53125 10.640625 54.890625 5.3125 
Q 48.25 0 35.984375 0 
L 9.8125 0 
z
" id="DejaVuSans-42"/>
       <path d="M 12.40625 8.296875 
L 28.515625 8.296875 
L 28.515625 63.921875 
L 10.984375 60.40625 
L 10.984375 69.390625 
L 28.421875 72.90625 
L 38.28125 72.90625 
L 38.28125 8.296875 
L 54.390625 8.296875 
L 54.390625 0 
L 12.40625 0 
z
" id="DejaVuSans-31"/>
      </defs>
      <g transform="translate(147.514807 52.399063)scale(0.06 -0.06)">
       <use xlink:href="#DejaVuSans-42"/>
       <use x="68.603516" xlink:href="#DejaVuSans-31"/>
      </g>
     </g>
    </g>
    <g id="xtick_2">
     <g id="line2d_2">
      <g>
       <use style="stroke:#000000;stroke-width:0.8;" x="301.090613" xlink:href="#m76f3bc2679" y="40.84"/>
      </g>
     </g>
     <g id="text_2">
      <!-- B2 -->
      <defs>
       <path d="M 19.1875 8.296875 
L 53.609375 8.296875 
L 53.609375 0 
L 7.328125 0 
L 7.328125 8.296875 
Q 12.9375 14.109375 22.625 23.890625 
Q 32.328125 33.6875 34.8125 36.53125 
Q 39.546875 41.84375 41.421875 45.53125 
Q 43.3125 49.21875 43.3125 52.78125 
Q 43.3125 58.59375 39.234375 62.25 
Q 35.15625 65.921875 28.609375 65.921875 
Q 23.96875 65.921875 18.8125 64.3125 
Q 13.671875 62.703125 7.8125 59.421875 
L 7.8125 69.390625 
Q 13.765625 71.78125 18.9375 73 
Q 24.125 74.21875 28.421875 74.21875 
Q 39.75 74.21875 46.484375 68.546875 
Q 53.21875 62.890625 53.21875 53.421875 
Q 53.21875 48.921875 51.53125 44.890625 
Q 49.859375 40.875 45.40625 35.40625 
Q 44.1875 33.984375 37.640625 27.21875 
Q 31.109375 20.453125 19.1875 8.296875 
z
" id="DejaVuSans-32"/>
      </defs>
      <g transform="translate(297.123582 52.399063)scale(0.06 -0.06)">
       <use xlink:href="#DejaVuSans-42"/>
       <use x="68.603516" xlink:href="#DejaVuSans-32"/>
      </g>
     </g>
    </g>
    <g id="xtick_3">
     <g id="line2d_3">
      <g>
       <use style="stroke:#000000;stroke-width:0.8;" x="450.699387" xlink:href="#m76f3bc2679" y="40.84"/>
      </g>
     </g>
     <g id="text_3">
      <!-- B3 -->
      <defs>
       <path d="M 40.578125 39.3125 
Q 47.65625 37.796875 51.625 33 
Q 55.609375 28.21875 55.609375 21.1875 
Q 55.609375 10.40625 48.1875 4.484375 
Q 40.765625 -1.421875 27.09375 -1.421875 
Q 22.515625 -1.421875 17.65625 -0.515625 
Q 12.796875 0.390625 7.625 2.203125 
L 7.625 11.71875 
Q 11.71875 9.328125 16.59375 8.109375 
Q 21.484375 6.890625 26.8125 6.890625 
Q 36.078125 6.890625 40.9375 10.546875 
Q 45.796875 14.203125 45.796875 21.1875 
Q 45.796875 27.640625 41.28125 31.265625 
Q 36.765625 34.90625 28.71875 34.90625 
L 20.21875 34.90625 
L 20.21875 43.015625 
L 29.109375 43.015625 
Q 36.375 43.015625 40.234375 45.921875 
Q 44.09375 48.828125 44.09375 54.296875 
Q 44.09375 59.90625 40.109375 62.90625 
Q 36.140625 65.921875 28.71875 65.921875 
Q 24.65625 65.921875 20.015625 65.03125 
Q 15.375 64.15625 9.8125 62.3125 
L 9.8125 71.09375 
Q 15.4375 72.65625 20.34375 73.4375 
Q 25.25 74.21875 29.59375 74.21875 
Q 40.828125 74.21875 47.359375 69.109375 
Q 53.90625 64.015625 53.90625 55.328125 
Q 53.90625 49.265625 50.4375 45.09375 
Q 46.96875 40.921875 40.578125 39.3125 
z
" id="DejaVuSans-33"/>
      </defs>
      <g transform="translate(446.732356 52.399063)scale(0.06 -0.06)">
       <use xlink:href="#DejaVuSans-42"/>
       <use x="68.603516" xlink:href="#DejaVuSans-33"/>
      </g>
     </g>
    </g>
    <g id="xtick_4">
     <g id="line2d_4">
      <g>
       <use style="stroke:#000000;stroke-width:0.8;" x="600.308161" xlink:href="#m76f3bc2679" y="40.84"/>
      </g>
     </g>
     <g id="text_4">
      <!-- B4 -->
      <defs>
       <path d="M 37.796875 64.3125 
L 12.890625 25.390625 
L 37.796875 25.390625 
z
M 35.203125 72.90625 
L 47.609375 72.90625 
L 47.609375 25.390625 
L 58.015625 25.390625 
L 58.015625 17.1875 
L 47.609375 17.1875 
L 47.609375 0 
L 37.796875 0 
L 37.796875 17.1875 
L 4.890625 17.1875 
L 4.890625 26.703125 
z
" id="DejaVuSans-34"/>
      </defs>
      <g transform="translate(596.34113 52.399063)scale(0.06 -0.06)">
       <use xlink:href="#DejaVuSans-42"/>
       <use x="68.603516" xlink:href="#DejaVuSans-34"/>
      </g>
     </g>
    </g>
    <g id="text_5">
     <!-- Residue id -->
     <defs>
      <path d="M 44.390625 34.1875 
Q 47.5625 33.109375 50.5625 29.59375 
Q 53.5625 26.078125 56.59375 19.921875 
L 66.609375 0 
L 56 0 
L 46.6875 18.703125 
Q 43.0625 26.03125 39.671875 28.421875 
Q 36.28125 30.8125 30.421875 30.8125 
L 19.671875 30.8125 
L 19.671875 0 
L 9.8125 0 
L 9.8125 72.90625 
L 32.078125 72.90625 
Q 44.578125 72.90625 50.734375 67.671875 
Q 56.890625 62.453125 56.890625 51.90625 
Q 56.890625 45.015625 53.6875 40.46875 
Q 50.484375 35.9375 44.390625 34.1875 
z
M 19.671875 64.796875 
L 19.671875 38.921875 
L 32.078125 38.921875 
Q 39.203125 38.921875 42.84375 42.21875 
Q 46.484375 45.515625 46.484375 51.90625 
Q 46.484375 58.296875 42.84375 61.546875 
Q 39.203125 64.796875 32.078125 64.796875 
z
" id="DejaVuSans-52"/>
      <path d="M 56.203125 29.59375 
L 56.203125 25.203125 
L 14.890625 25.203125 
Q 15.484375 15.921875 20.484375 11.0625 
Q 25.484375 6.203125 34.421875 6.203125 
Q 39.59375 6.203125 44.453125 7.46875 
Q 49.3125 8.734375 54.109375 11.28125 
L 54.109375 2.78125 
Q 49.265625 0.734375 44.1875 -0.34375 
Q 39.109375 -1.421875 33.890625 -1.421875 
Q 20.796875 -1.421875 13.15625 6.1875 
Q 5.515625 13.8125 5.515625 26.8125 
Q 5.515625 40.234375 12.765625 48.109375 
Q 20.015625 56 32.328125 56 
Q 43.359375 56 49.78125 48.890625 
Q 56.203125 41.796875 56.203125 29.59375 
z
M 47.21875 32.234375 
Q 47.125 39.59375 43.09375 43.984375 
Q 39.0625 48.390625 32.421875 48.390625 
Q 24.90625 48.390625 20.390625 44.140625 
Q 15.875 39.890625 15.1875 32.171875 
z
" id="DejaVuSans-65"/>
      <path d="M 44.28125 53.078125 
L 44.28125 44.578125 
Q 40.484375 46.53125 36.375 47.5 
Q 32.28125 48.484375 27.875 48.484375 
Q 21.1875 48.484375 17.84375 46.4375 
Q 14.5 44.390625 14.5 40.28125 
Q 14.5 37.15625 16.890625 35.375 
Q 19.28125 33.59375 26.515625 31.984375 
L 29.59375 31.296875 
Q 39.15625 29.25 43.1875 25.515625 
Q 47.21875 21.78125 47.21875 15.09375 
Q 47.21875 7.46875 41.1875 3.015625 
Q 35.15625 -1.421875 24.609375 -1.421875 
Q 20.21875 -1.421875 15.453125 -0.5625 
Q 10.6875 0.296875 5.421875 2 
L 5.421875 11.28125 
Q 10.40625 8.6875 15.234375 7.390625 
Q 20.0625 6.109375 24.8125 6.109375 
Q 31.15625 6.109375 34.5625 8.28125 
Q 37.984375 10.453125 37.984375 14.40625 
Q 37.984375 18.0625 35.515625 20.015625 
Q 33.0625 21.96875 24.703125 23.78125 
L 21.578125 24.515625 
Q 13.234375 26.265625 9.515625 29.90625 
Q 5.8125 33.546875 5.8125 39.890625 
Q 5.8125 47.609375 11.28125 51.796875 
Q 16.75 56 26.8125 56 
Q 31.78125 56 36.171875 55.265625 
Q 40.578125 54.546875 44.28125 53.078125 
z
" id="DejaVuSans-73"/>
      <path d="M 9.421875 54.6875 
L 18.40625 54.6875 
L 18.40625 0 
L 9.421875 0 
z
M 9.421875 75.984375 
L 18.40625 75.984375 
L 18.40625 64.59375 
L 9.421875 64.59375 
z
" id="DejaVuSans-69"/>
      <path d="M 45.40625 46.390625 
L 45.40625 75.984375 
L 54.390625 75.984375 
L 54.390625 0 
L 45.40625 0 
L 45.40625 8.203125 
Q 42.578125 3.328125 38.25 0.953125 
Q 33.9375 -1.421875 27.875 -1.421875 
Q 17.96875 -1.421875 11.734375 6.484375 
Q 5.515625 14.40625 5.515625 27.296875 
Q 5.515625 40.1875 11.734375 48.09375 
Q 17.96875 56 27.875 56 
Q 33.9375 56 38.25 53.625 
Q 42.578125 51.265625 45.40625 46.390625 
z
M 14.796875 27.296875 
Q 14.796875 17.390625 18.875 11.75 
Q 22.953125 6.109375 30.078125 6.109375 
Q 37.203125 6.109375 41.296875 11.75 
Q 45.40625 17.390625 45.40625 27.296875 
Q 45.40625 37.203125 41.296875 42.84375 
Q 37.203125 48.484375 30.078125 48.484375 
Q 22.953125 48.484375 18.875 42.84375 
Q 14.796875 37.203125 14.796875 27.296875 
z
" id="DejaVuSans-64"/>
      <path d="M 8.5 21.578125 
L 8.5 54.6875 
L 17.484375 54.6875 
L 17.484375 21.921875 
Q 17.484375 14.15625 20.5 10.265625 
Q 23.53125 6.390625 29.59375 6.390625 
Q 36.859375 6.390625 41.078125 11.03125 
Q 45.3125 15.671875 45.3125 23.6875 
L 45.3125 54.6875 
L 54.296875 54.6875 
L 54.296875 0 
L 45.3125 0 
L 45.3125 8.40625 
Q 42.046875 3.421875 37.71875 1 
Q 33.40625 -1.421875 27.6875 -1.421875 
Q 18.265625 -1.421875 13.375 4.4375 
Q 8.5 10.296875 8.5 21.578125 
z
M 31.109375 56 
z
" id="DejaVuSans-75"/>
      <path id="DejaVuSans-20"/>
     </defs>
     <g transform="translate(349.781719 65.245312)scale(0.1 -0.1)">
      <use xlink:href="#DejaVuSans-52"/>
      <use x="69.419922" xlink:href="#DejaVuSans-65"/>
      <use x="130.943359" xlink:href="#DejaVuSans-73"/>
      <use x="183.042969" xlink:href="#DejaVuSans-69"/>
      <use x="210.826172" xlink:href="#DejaVuSans-64"/>
      <use x="274.302734" xlink:href="#DejaVuSans-75"/>
      <use x="337.681641" xlink:href="#DejaVuSans-65"/>
      <use x="399.205078" xlink:href="#DejaVuSans-20"/>
      <use x="430.992188" xlink:href="#DejaVuSans-69"/>
      <use x="458.775391" xlink:href="#DejaVuSans-64"/>
     </g>
    </g>
   </g>
   <g id="matplotlib.axis_2">
    <g id="ytick_1">
     <g id="line2d_5">
      <defs>
       <path d="M 0 0 
L -3.5 0 
" id="m1a676601a9" style="stroke:#000000;stroke-width:0.8;"/>
      </defs>
      <g>
       <use style="stroke:#000000;stroke-width:0.8;" x="45.11" xlink:href="#m1a676601a9" y="40.84"/>
      </g>
     </g>
     <g id="text_6">
      <!-- 0.00 -->
      <defs>
       <path d="M 31.78125 66.40625 
Q 24.171875 66.40625 20.328125 58.90625 
Q 16.5 51.421875 16.5 36.375 
Q 16.5 21.390625 20.328125 13.890625 
Q 24.171875 6.390625 31.78125 6.390625 
Q 39.453125 6.390625 43.28125 13.890625 
Q 47.125 21.390625 47.125 36.375 
Q 47.125 51.421875 43.28125 58.90625 
Q 39.453125 66.40625 31.78125 66.40625 
z
M 31.78125 74.21875 
Q 44.046875 74.21875 50.515625 64.515625 
Q 56.984375 54.828125 56.984375 36.375 
Q 56.984375 17.96875 50.515625 8.265625 
Q 44.046875 -1.421875 31.78125 -1.421875 
Q 19.53125 -1.421875 13.0625 8.265625 
Q 6.59375 17.96875 6.59375 36.375 
Q 6.59375 54.828125 13.0625 64.515625 
Q 19.53125 74.21875 31.78125 74.21875 
z
" id="DejaVuSans-30"/>
       <path d="M 10.6875 12.40625 
L 21 12.40625 
L 21 0 
L 10.6875 0 
z
" id="DejaVuSans-2e"/>
      </defs>
      <g transform="translate(24.750625 43.119531)scale(0.06 -0.06)">
       <use xlink:href="#DejaVuSans-30"/>
       <use x="63.623047" xlink:href="#DejaVuSans-2e"/>
       <use x="95.410156" xlink:href="#DejaVuSans-30"/>
       <use x="159.033203" xlink:href="#DejaVuSans-30"/>
      </g>
     </g>
    </g>
    <g id="ytick_2">
     <g id="line2d_6">
      <g>
       <use style="stroke:#000000;stroke-width:0.8;" x="45.11" xlink:href="#m1a676601a9" y="32.646176"/>
      </g>
     </g>
     <g id="text_7">
      <!-- 0.05 -->
      <defs>
       <path d="M 10.796875 72.90625 
L 49.515625 72.90625 
L 49.515625 64.59375 
L 19.828125 64.59375 
L 19.828125 46.734375 
Q 21.96875 47.46875 24.109375 47.828125 
Q 26.265625 48.1875 28.421875 48.1875 
Q 40.625 48.1875 47.75 41.5 
Q 54.890625 34.8125 54.890625 23.390625 
Q 54.890625 11.625 47.5625 5.09375 
Q 40.234375 -1.421875 26.90625 -1.421875 
Q 22.3125 -1.421875 17.546875 -0.640625 
Q 12.796875 0.140625 7.71875 1.703125 
L 7.71875 11.625 
Q 12.109375 9.234375 16.796875 8.0625 
Q 21.484375 6.890625 26.703125 6.890625 
Q 35.15625 6.890625 40.078125 11.328125 
Q 45.015625 15.765625 45.015625 23.390625 
Q 45.015625 31 40.078125 35.4375 
Q 35.15625 39.890625 26.703125 39.890625 
Q 22.75 39.890625 18.8125 39.015625 
Q 14.890625 38.140625 10.796875 36.28125 
z
" id="DejaVuSans-35"/>
      </defs>
      <g transform="translate(24.750625 34.925708)scale(0.06 -0.06)">
       <use xlink:href="#DejaVuSans-30"/>
       <use x="63.623047" xlink:href="#DejaVuSans-2e"/>
       <use x="95.410156" xlink:href="#DejaVuSans-30"/>
       <use x="159.033203" xlink:href="#DejaVuSans-35"/>
      </g>
     </g>
    </g>
    <g id="text_8">
     <!-- Contact frequency -->
     <defs>
      <path d="M 64.40625 67.28125 
L 64.40625 56.890625 
Q 59.421875 61.53125 53.78125 63.8125 
Q 48.140625 66.109375 41.796875 66.109375 
Q 29.296875 66.109375 22.65625 58.46875 
Q 16.015625 50.828125 16.015625 36.375 
Q 16.015625 21.96875 22.65625 14.328125 
Q 29.296875 6.6875 41.796875 6.6875 
Q 48.140625 6.6875 53.78125 8.984375 
Q 59.421875 11.28125 64.40625 15.921875 
L 64.40625 5.609375 
Q 59.234375 2.09375 53.4375 0.328125 
Q 47.65625 -1.421875 41.21875 -1.421875 
Q 24.65625 -1.421875 15.125 8.703125 
Q 5.609375 18.84375 5.609375 36.375 
Q 5.609375 53.953125 15.125 64.078125 
Q 24.65625 74.21875 41.21875 74.21875 
Q 47.75 74.21875 53.53125 72.484375 
Q 59.328125 70.75 64.40625 67.28125 
z
" id="DejaVuSans-43"/>
      <path d="M 30.609375 48.390625 
Q 23.390625 48.390625 19.1875 42.75 
Q 14.984375 37.109375 14.984375 27.296875 
Q 14.984375 17.484375 19.15625 11.84375 
Q 23.34375 6.203125 30.609375 6.203125 
Q 37.796875 6.203125 41.984375 11.859375 
Q 46.1875 17.53125 46.1875 27.296875 
Q 46.1875 37.015625 41.984375 42.703125 
Q 37.796875 48.390625 30.609375 48.390625 
z
M 30.609375 56 
Q 42.328125 56 49.015625 48.375 
Q 55.71875 40.765625 55.71875 27.296875 
Q 55.71875 13.875 49.015625 6.21875 
Q 42.328125 -1.421875 30.609375 -1.421875 
Q 18.84375 -1.421875 12.171875 6.21875 
Q 5.515625 13.875 5.515625 27.296875 
Q 5.515625 40.765625 12.171875 48.375 
Q 18.84375 56 30.609375 56 
z
" id="DejaVuSans-6f"/>
      <path d="M 54.890625 33.015625 
L 54.890625 0 
L 45.90625 0 
L 45.90625 32.71875 
Q 45.90625 40.484375 42.875 44.328125 
Q 39.84375 48.1875 33.796875 48.1875 
Q 26.515625 48.1875 22.3125 43.546875 
Q 18.109375 38.921875 18.109375 30.90625 
L 18.109375 0 
L 9.078125 0 
L 9.078125 54.6875 
L 18.109375 54.6875 
L 18.109375 46.1875 
Q 21.34375 51.125 25.703125 53.5625 
Q 30.078125 56 35.796875 56 
Q 45.21875 56 50.046875 50.171875 
Q 54.890625 44.34375 54.890625 33.015625 
z
" id="DejaVuSans-6e"/>
      <path d="M 18.3125 70.21875 
L 18.3125 54.6875 
L 36.8125 54.6875 
L 36.8125 47.703125 
L 18.3125 47.703125 
L 18.3125 18.015625 
Q 18.3125 11.328125 20.140625 9.421875 
Q 21.96875 7.515625 27.59375 7.515625 
L 36.8125 7.515625 
L 36.8125 0 
L 27.59375 0 
Q 17.1875 0 13.234375 3.875 
Q 9.28125 7.765625 9.28125 18.015625 
L 9.28125 47.703125 
L 2.6875 47.703125 
L 2.6875 54.6875 
L 9.28125 54.6875 
L 9.28125 70.21875 
z
" id="DejaVuSans-74"/>
      <path d="M 34.28125 27.484375 
Q 23.390625 27.484375 19.1875 25 
Q 14.984375 22.515625 14.984375 16.5 
Q 14.984375 11.71875 18.140625 8.90625 
Q 21.296875 6.109375 26.703125 6.109375 
Q 34.1875 6.109375 38.703125 11.40625 
Q 43.21875 16.703125 43.21875 25.484375 
L 43.21875 27.484375 
z
M 52.203125 31.203125 
L 52.203125 0 
L 43.21875 0 
L 43.21875 8.296875 
Q 40.140625 3.328125 35.546875 0.953125 
Q 30.953125 -1.421875 24.3125 -1.421875 
Q 15.921875 -1.421875 10.953125 3.296875 
Q 6 8.015625 6 15.921875 
Q 6 25.140625 12.171875 29.828125 
Q 18.359375 34.515625 30.609375 34.515625 
L 43.21875 34.515625 
L 43.21875 35.40625 
Q 43.21875 41.609375 39.140625 45 
Q 35.0625 48.390625 27.6875 48.390625 
Q 23 48.390625 18.546875 47.265625 
Q 14.109375 46.140625 10.015625 43.890625 
L 10.015625 52.203125 
Q 14.9375 54.109375 19.578125 55.046875 
Q 24.21875 56 28.609375 56 
Q 40.484375 56 46.34375 49.84375 
Q 52.203125 43.703125 52.203125 31.203125 
z
" id="DejaVuSans-61"/>
      <path d="M 48.78125 52.59375 
L 48.78125 44.1875 
Q 44.96875 46.296875 41.140625 47.34375 
Q 37.3125 48.390625 33.40625 48.390625 
Q 24.65625 48.390625 19.8125 42.84375 
Q 14.984375 37.3125 14.984375 27.296875 
Q 14.984375 17.28125 19.8125 11.734375 
Q 24.65625 6.203125 33.40625 6.203125 
Q 37.3125 6.203125 41.140625 7.25 
Q 44.96875 8.296875 48.78125 10.40625 
L 48.78125 2.09375 
Q 45.015625 0.34375 40.984375 -0.53125 
Q 36.96875 -1.421875 32.421875 -1.421875 
Q 20.0625 -1.421875 12.78125 6.34375 
Q 5.515625 14.109375 5.515625 27.296875 
Q 5.515625 40.671875 12.859375 48.328125 
Q 20.21875 56 33.015625 56 
Q 37.15625 56 41.109375 55.140625 
Q 45.0625 54.296875 48.78125 52.59375 
z
" id="DejaVuSans-63"/>
      <path d="M 37.109375 75.984375 
L 37.109375 68.5 
L 28.515625 68.5 
Q 23.6875 68.5 21.796875 66.546875 
Q 19.921875 64.59375 19.921875 59.515625 
L 19.921875 54.6875 
L 34.71875 54.6875 
L 34.71875 47.703125 
L 19.921875 47.703125 
L 19.921875 0 
L 10.890625 0 
L 10.890625 47.703125 
L 2.296875 47.703125 
L 2.296875 54.6875 
L 10.890625 54.6875 
L 10.890625 58.5 
Q 10.890625 67.625 15.140625 71.796875 
Q 19.390625 75.984375 28.609375 75.984375 
z
" id="DejaVuSans-66"/>
      <path d="M 41.109375 46.296875 
Q 39.59375 47.171875 37.8125 47.578125 
Q 36.03125 48 33.890625 48 
Q 26.265625 48 22.1875 43.046875 
Q 18.109375 38.09375 18.109375 28.8125 
L 18.109375 0 
L 9.078125 0 
L 9.078125 54.6875 
L 18.109375 54.6875 
L 18.109375 46.1875 
Q 20.953125 51.171875 25.484375 53.578125 
Q 30.03125 56 36.53125 56 
Q 37.453125 56 38.578125 55.875 
Q 39.703125 55.765625 41.0625 55.515625 
z
" id="DejaVuSans-72"/>
      <path d="M 14.796875 27.296875 
Q 14.796875 17.390625 18.875 11.75 
Q 22.953125 6.109375 30.078125 6.109375 
Q 37.203125 6.109375 41.296875 11.75 
Q 45.40625 17.390625 45.40625 27.296875 
Q 45.40625 37.203125 41.296875 42.84375 
Q 37.203125 48.484375 30.078125 48.484375 
Q 22.953125 48.484375 18.875 42.84375 
Q 14.796875 37.203125 14.796875 27.296875 
z
M 45.40625 8.203125 
Q 42.578125 3.328125 38.25 0.953125 
Q 33.9375 -1.421875 27.875 -1.421875 
Q 17.96875 -1.421875 11.734375 6.484375 
Q 5.515625 14.40625 5.515625 27.296875 
Q 5.515625 40.1875 11.734375 48.09375 
Q 17.96875 56 27.875 56 
Q 33.9375 56 38.25 53.625 
Q 42.578125 51.265625 45.40625 46.390625 
L 45.40625 54.6875 
L 54.390625 54.6875 
L 54.390625 -20.796875 
L 45.40625 -20.796875 
z
" id="DejaVuSans-71"/>
      <path d="M 32.171875 -5.078125 
Q 28.375 -14.84375 24.75 -17.8125 
Q 21.140625 -20.796875 15.09375 -20.796875 
L 7.90625 -20.796875 
L 7.90625 -13.28125 
L 13.1875 -13.28125 
Q 16.890625 -13.28125 18.9375 -11.515625 
Q 21 -9.765625 23.484375 -3.21875 
L 25.09375 0.875 
L 2.984375 54.6875 
L 12.5 54.6875 
L 29.59375 11.921875 
L 46.6875 54.6875 
L 56.203125 54.6875 
z
" id="DejaVuSans-79"/>
     </defs>
     <g transform="translate(18.670937 82.972776)rotate(-90)scale(0.1 -0.1)">
      <use xlink:href="#DejaVuSans-43"/>
      <use x="69.824219" xlink:href="#DejaVuSans-6f"/>
      <use x="131.005859" xlink:href="#DejaVuSans-6e"/>
      <use x="194.384766" xlink:href="#DejaVuSans-74"/>
      <use x="233.59375" xlink:href="#DejaVuSans-61"/>
      <use x="294.873047" xlink:href="#DejaVuSans-63"/>
      <use x="349.853516" xlink:href="#DejaVuSans-74"/>
      <use x="389.0625" xlink:href="#DejaVuSans-20"/>
      <use x="420.849609" xlink:href="#DejaVuSans-66"/>
      <use x="456.054688" xlink:href="#DejaVuSans-72"/>
      <use x="497.136719" xlink:href="#DejaVuSans-65"/>
      <use x="558.660156" xlink:href="#DejaVuSans-71"/>
      <use x="622.136719" xlink:href="#DejaVuSans-75"/>
      <use x="685.515625" xlink:href="#DejaVuSans-65"/>
      <use x="747.039062" xlink:href="#DejaVuSans-6e"/>
      <use x="810.417969" xlink:href="#DejaVuSans-63"/>
      <use x="865.398438" xlink:href="#DejaVuSans-79"/>
     </g>
    </g>
   </g>
   <g id="patch_7">
    <path d="M 45.11 40.84 
L 45.11 32.646176 
" style="fill:none;stroke:#000000;stroke-linecap:square;stroke-linejoin:miter;stroke-width:0.8;"/>
   </g>
   <g id="patch_8">
    <path d="M 706.68 40.84 
L 706.68 32.646176 
" style="fill:none;stroke:#000000;stroke-linecap:square;stroke-linejoin:miter;stroke-width:0.8;"/>
   </g>
   <g id="patch_9">
    <path d="M 45.11 40.84 
L 706.68 40.84 
" style="fill:none;stroke:#000000;stroke-linecap:square;stroke-linejoin:miter;stroke-width:0.8;"/>
   </g>
   <g id="patch_10">
    <path d="M 45.11 32.646176 
L 706.68 32.646176 
" style="fill:none;stroke:#000000;stroke-linecap:square;stroke-linejoin:miter;stroke-width:0.8;"/>
   </g>
   <g id="text_9">
    <!-- Histogram of peptide contacts -->
    <defs>
     <path d="M 9.8125 72.90625 
L 19.671875 72.90625 
L 19.671875 43.015625 
L 55.515625 43.015625 
L 55.515625 72.90625 
L 65.375 72.90625 
L 65.375 0 
L 55.515625 0 
L 55.515625 34.71875 
L 19.671875 34.71875 
L 19.671875 0 
L 9.8125 0 
z
" id="DejaVuSans-48"/>
     <path d="M 45.40625 27.984375 
Q 45.40625 37.75 41.375 43.109375 
Q 37.359375 48.484375 30.078125 48.484375 
Q 22.859375 48.484375 18.828125 43.109375 
Q 14.796875 37.75 14.796875 27.984375 
Q 14.796875 18.265625 18.828125 12.890625 
Q 22.859375 7.515625 30.078125 7.515625 
Q 37.359375 7.515625 41.375 12.890625 
Q 45.40625 18.265625 45.40625 27.984375 
z
M 54.390625 6.78125 
Q 54.390625 -7.171875 48.1875 -13.984375 
Q 42 -20.796875 29.203125 -20.796875 
Q 24.46875 -20.796875 20.265625 -20.09375 
Q 16.0625 -19.390625 12.109375 -17.921875 
L 12.109375 -9.1875 
Q 16.0625 -11.328125 19.921875 -12.34375 
Q 23.78125 -13.375 27.78125 -13.375 
Q 36.625 -13.375 41.015625 -8.765625 
Q 45.40625 -4.15625 45.40625 5.171875 
L 45.40625 9.625 
Q 42.625 4.78125 38.28125 2.390625 
Q 33.9375 0 27.875 0 
Q 17.828125 0 11.671875 7.65625 
Q 5.515625 15.328125 5.515625 27.984375 
Q 5.515625 40.671875 11.671875 48.328125 
Q 17.828125 56 27.875 56 
Q 33.9375 56 38.28125 53.609375 
Q 42.625 51.21875 45.40625 46.390625 
L 45.40625 54.6875 
L 54.390625 54.6875 
z
" id="DejaVuSans-67"/>
     <path d="M 52 44.1875 
Q 55.375 50.25 60.0625 53.125 
Q 64.75 56 71.09375 56 
Q 79.640625 56 84.28125 50.015625 
Q 88.921875 44.046875 88.921875 33.015625 
L 88.921875 0 
L 79.890625 0 
L 79.890625 32.71875 
Q 79.890625 40.578125 77.09375 44.375 
Q 74.3125 48.1875 68.609375 48.1875 
Q 61.625 48.1875 57.5625 43.546875 
Q 53.515625 38.921875 53.515625 30.90625 
L 53.515625 0 
L 44.484375 0 
L 44.484375 32.71875 
Q 44.484375 40.625 41.703125 44.40625 
Q 38.921875 48.1875 33.109375 48.1875 
Q 26.21875 48.1875 22.15625 43.53125 
Q 18.109375 38.875 18.109375 30.90625 
L 18.109375 0 
L 9.078125 0 
L 9.078125 54.6875 
L 18.109375 54.6875 
L 18.109375 46.1875 
Q 21.1875 51.21875 25.484375 53.609375 
Q 29.78125 56 35.6875 56 
Q 41.65625 56 45.828125 52.96875 
Q 50 49.953125 52 44.1875 
z
" id="DejaVuSans-6d"/>
     <path d="M 18.109375 8.203125 
L 18.109375 -20.796875 
L 9.078125 -20.796875 
L 9.078125 54.6875 
L 18.109375 54.6875 
L 18.109375 46.390625 
Q 20.953125 51.265625 25.265625 53.625 
Q 29.59375 56 35.59375 56 
Q 45.5625 56 51.78125 48.09375 
Q 58.015625 40.1875 58.015625 27.296875 
Q 58.015625 14.40625 51.78125 6.484375 
Q 45.5625 -1.421875 35.59375 -1.421875 
Q 29.59375 -1.421875 25.265625 0.953125 
Q 20.953125 3.328125 18.109375 8.203125 
z
M 48.6875 27.296875 
Q 48.6875 37.203125 44.609375 42.84375 
Q 40.53125 48.484375 33.40625 48.484375 
Q 26.265625 48.484375 22.1875 42.84375 
Q 18.109375 37.203125 18.109375 27.296875 
Q 18.109375 17.390625 22.1875 11.75 
Q 26.265625 6.109375 33.40625 6.109375 
Q 40.53125 6.109375 44.609375 11.75 
Q 48.6875 17.390625 48.6875 27.296875 
z
" id="DejaVuSans-70"/>
    </defs>
    <g transform="translate(284.857188 26.646176)scale(0.12 -0.12)">
     <use xlink:href="#DejaVuSans-48"/>
     <use x="75.195312" xlink:href="#DejaVuSans-69"/>
     <use x="102.978516" xlink:href="#DejaVuSans-73"/>
     <use x="155.078125" xlink:href="#DejaVuSans-74"/>
     <use x="194.287109" xlink:href="#DejaVuSans-6f"/>
     <use x="255.46875" xlink:href="#DejaVuSans-67"/>
     <use x="318.945312" xlink:href="#DejaVuSans-72"/>
     <use x="360.058594" xlink:href="#DejaVuSans-61"/>
     <use x="421.337891" xlink:href="#DejaVuSans-6d"/>
     <use x="518.75" xlink:href="#DejaVuSans-20"/>
     <use x="550.537109" xlink:href="#DejaVuSans-6f"/>
     <use x="611.71875" xlink:href="#DejaVuSans-66"/>
     <use x="646.923828" xlink:href="#DejaVuSans-20"/>
     <use x="678.710938" xlink:href="#DejaVuSans-70"/>
     <use x="742.1875" xlink:href="#DejaVuSans-65"/>
     <use x="803.710938" xlink:href="#DejaVuSans-70"/>
     <use x="867.1875" xlink:href="#DejaVuSans-74"/>
     <use x="906.396484" xlink:href="#DejaVuSans-69"/>
     <use x="934.179688" xlink:href="#DejaVuSans-64"/>
     <use x="997.65625" xlink:href="#DejaVuSans-65"/>
     <use x="1059.179688" xlink:href="#DejaVuSans-20"/>
     <use x="1090.966797" xlink:href="#DejaVuSans-63"/>
     <use x="1145.947266" xlink:href="#DejaVuSans-6f"/>
     <use x="1207.128906" xlink:href="#DejaVuSans-6e"/>
     <use x="1270.507812" xlink:href="#DejaVuSans-74"/>
     <use x="1309.716797" xlink:href="#DejaVuSans-61"/>
     <use x="1370.996094" xlink:href="#DejaVuSans-63"/>
     <use x="1425.976562" xlink:href="#DejaVuSans-74"/>
     <use x="1465.185547" xlink:href="#DejaVuSans-73"/>
    </g>
   </g>
  </g>
  <g id="axes_2">
   <g id="patch_11">
    <path d="M 45.11 109.24 
L 706.68 109.24 
L 706.68 101.046176 
L 45.11 101.046176 
z
" style="fill:#ffffff;"/>
   </g>
   <g id="patch_12">
    <path clip-path="url(#pac59a76563)" d="M 75.181364 109.24 
L 116.023961 109.24 
L 116.023961 109.24 
L 75.181364 109.24 
z
" style="fill:#666666;"/>
   </g>
   <g id="patch_13">
    <path clip-path="url(#pac59a76563)" d="M 115.223126 109.24 
L 156.065724 109.24 
L 156.065724 109.24 
L 115.223126 109.24 
z
" style="fill:#666666;"/>
   </g>
   <g id="patch_14">
    <path clip-path="url(#pac59a76563)" d="M 155.264889 109.24 
L 196.107486 109.24 
L 196.107486 109.24 
L 155.264889 109.24 
z
" style="fill:#666666;"/>
   </g>
   <g id="patch_15">
    <path clip-path="url(#pac59a76563)" d="M 195.306651 109.24 
L 236.149249 109.24 
L 236.149249 109.24 
L 195.306651 109.24 
z
" style="fill:#666666;"/>
   </g>
   <g id="patch_16">
    <path clip-path="url(#pac59a76563)" d="M 235.348414 109.24 
L 276.191011 109.24 
L 276.191011 109.24 
L 235.348414 109.24 
z
" style="fill:#666666;"/>
   </g>
   <g id="patch_17">
    <path clip-path="url(#pac59a76563)" d="M 275.390176 109.24 
L 316.232774 109.24 
L 316.232774 109.24 
L 275.390176 109.24 
z
" style="fill:#666666;"/>
   </g>
   <g id="patch_18">
    <path clip-path="url(#pac59a76563)" d="M 315.431939 109.24 
L 356.274536 109.24 
L 356.274536 109.24 
L 315.431939 109.24 
z
" style="fill:#666666;"/>
   </g>
   <g id="patch_19">
    <path clip-path="url(#pac59a76563)" d="M 355.473701 109.24 
L 396.316299 109.24 
L 396.316299 109.24 
L 355.473701 109.24 
z
" style="fill:#666666;"/>
   </g>
   <g id="patch_20">
    <path clip-path="url(#pac59a76563)" d="M 395.515464 109.24 
L 436.358061 109.24 
L 436.358061 109.24 
L 395.515464 109.24 
z
" style="fill:#666666;"/>
   </g>
   <g id="patch_21">
    <path clip-path="url(#pac59a76563)" d="M 435.557226 109.24 
L 476.399824 109.24 
L 476.399824 109.24 
L 435.557226 109.24 
z
" style="fill:#666666;"/>
   </g>
   <g id="patch_22">
    <path clip-path="url(#pac59a76563)" d="M 475.598989 109.24 
L 516.441586 109.24 
L 516.441586 109.24 
L 475.598989 109.24 
z
" style="fill:#666666;"/>
   </g>
   <g id="patch_23">
    <path clip-path="url(#pac59a76563)" d="M 515.640751 109.24 
L 556.483349 109.24 
L 556.483349 109.24 
L 515.640751 109.24 
z
" style="fill:#666666;"/>
   </g>
   <g id="patch_24">
    <path clip-path="url(#pac59a76563)" d="M 555.682514 109.24 
L 596.525111 109.24 
L 596.525111 109.24 
L 555.682514 109.24 
z
" style="fill:#666666;"/>
   </g>
   <g id="patch_25">
    <path clip-path="url(#pac59a76563)" d="M 595.724276 109.24 
L 636.566874 109.24 
L 636.566874 109.24 
L 595.724276 109.24 
z
" style="fill:#666666;"/>
   </g>
   <g id="patch_26">
    <path clip-path="url(#pac59a76563)" d="M 635.766039 109.24 
L 676.608636 109.24 
L 676.608636 109.24 
L 635.766039 109.24 
z
" style="fill:#666666;"/>
   </g>
   <g id="matplotlib.axis_3">
    <g id="xtick_5">
     <g id="line2d_7">
      <g>
       <use style="stroke:#000000;stroke-width:0.8;" x="95.602663" xlink:href="#m76f3bc2679" y="109.24"/>
      </g>
     </g>
    </g>
    <g id="xtick_6">
     <g id="line2d_8">
      <g>
       <use style="stroke:#000000;stroke-width:0.8;" x="135.644425" xlink:href="#m76f3bc2679" y="109.24"/>
      </g>
     </g>
    </g>
    <g id="xtick_7">
     <g id="line2d_9">
      <g>
       <use style="stroke:#000000;stroke-width:0.8;" x="175.686188" xlink:href="#m76f3bc2679" y="109.24"/>
      </g>
     </g>
    </g>
    <g id="xtick_8">
     <g id="line2d_10">
      <g>
       <use style="stroke:#000000;stroke-width:0.8;" x="215.72795" xlink:href="#m76f3bc2679" y="109.24"/>
      </g>
     </g>
    </g>
    <g id="xtick_9">
     <g id="line2d_11">
      <g>
       <use style="stroke:#000000;stroke-width:0.8;" x="255.769713" xlink:href="#m76f3bc2679" y="109.24"/>
      </g>
     </g>
    </g>
    <g id="xtick_10">
     <g id="line2d_12">
      <g>
       <use style="stroke:#000000;stroke-width:0.8;" x="295.811475" xlink:href="#m76f3bc2679" y="109.24"/>
      </g>
     </g>
    </g>
    <g id="xtick_11">
     <g id="line2d_13">
      <g>
       <use style="stroke:#000000;stroke-width:0.8;" x="335.853238" xlink:href="#m76f3bc2679" y="109.24"/>
      </g>
     </g>
    </g>
    <g id="xtick_12">
     <g id="line2d_14">
      <g>
       <use style="stroke:#000000;stroke-width:0.8;" x="375.895" xlink:href="#m76f3bc2679" y="109.24"/>
      </g>
     </g>
    </g>
    <g id="xtick_13">
     <g id="line2d_15">
      <g>
       <use style="stroke:#000000;stroke-width:0.8;" x="415.936762" xlink:href="#m76f3bc2679" y="109.24"/>
      </g>
     </g>
    </g>
    <g id="xtick_14">
     <g id="line2d_16">
      <g>
       <use style="stroke:#000000;stroke-width:0.8;" x="455.978525" xlink:href="#m76f3bc2679" y="109.24"/>
      </g>
     </g>
    </g>
    <g id="xtick_15">
     <g id="line2d_17">
      <g>
       <use style="stroke:#000000;stroke-width:0.8;" x="496.020287" xlink:href="#m76f3bc2679" y="109.24"/>
      </g>
     </g>
    </g>
    <g id="xtick_16">
     <g id="line2d_18">
      <g>
       <use style="stroke:#000000;stroke-width:0.8;" x="536.06205" xlink:href="#m76f3bc2679" y="109.24"/>
      </g>
     </g>
    </g>
    <g id="xtick_17">
     <g id="line2d_19">
      <g>
       <use style="stroke:#000000;stroke-width:0.8;" x="576.103812" xlink:href="#m76f3bc2679" y="109.24"/>
      </g>
     </g>
    </g>
    <g id="xtick_18">
     <g id="line2d_20">
      <g>
       <use style="stroke:#000000;stroke-width:0.8;" x="616.145575" xlink:href="#m76f3bc2679" y="109.24"/>
      </g>
     </g>
    </g>
    <g id="xtick_19">
     <g id="line2d_21">
      <g>
       <use style="stroke:#000000;stroke-width:0.8;" x="656.187337" xlink:href="#m76f3bc2679" y="109.24"/>
      </g>
     </g>
    </g>
    <g id="text_10">
     <!-- Residue id -->
     <g transform="translate(349.781719 127.838437)scale(0.1 -0.1)">
      <use xlink:href="#DejaVuSans-52"/>
      <use x="69.419922" xlink:href="#DejaVuSans-65"/>
      <use x="130.943359" xlink:href="#DejaVuSans-73"/>
      <use x="183.042969" xlink:href="#DejaVuSans-69"/>
      <use x="210.826172" xlink:href="#DejaVuSans-64"/>
      <use x="274.302734" xlink:href="#DejaVuSans-75"/>
      <use x="337.681641" xlink:href="#DejaVuSans-65"/>
      <use x="399.205078" xlink:href="#DejaVuSans-20"/>
      <use x="430.992188" xlink:href="#DejaVuSans-69"/>
      <use x="458.775391" xlink:href="#DejaVuSans-64"/>
     </g>
    </g>
   </g>
   <g id="matplotlib.axis_4">
    <g id="ytick_3">
     <g id="line2d_22">
      <g>
       <use style="stroke:#000000;stroke-width:0.8;" x="45.11" xlink:href="#m1a676601a9" y="109.24"/>
      </g>
     </g>
     <g id="text_11">
      <!-- 0.00 -->
      <g transform="translate(24.750625 111.519531)scale(0.06 -0.06)">
       <use xlink:href="#DejaVuSans-30"/>
       <use x="63.623047" xlink:href="#DejaVuSans-2e"/>
       <use x="95.410156" xlink:href="#DejaVuSans-30"/>
       <use x="159.033203" xlink:href="#DejaVuSans-30"/>
      </g>
     </g>
    </g>
    <g id="ytick_4">
     <g id="line2d_23">
      <g>
       <use style="stroke:#000000;stroke-width:0.8;" x="45.11" xlink:href="#m1a676601a9" y="101.046176"/>
      </g>
     </g>
     <g id="text_12">
      <!-- 0.05 -->
      <g transform="translate(24.750625 103.325708)scale(0.06 -0.06)">
       <use xlink:href="#DejaVuSans-30"/>
       <use x="63.623047" xlink:href="#DejaVuSans-2e"/>
       <use x="95.410156" xlink:href="#DejaVuSans-30"/>
       <use x="159.033203" xlink:href="#DejaVuSans-35"/>
      </g>
     </g>
    </g>
    <g id="text_13">
     <!-- Contact frequency -->
     <g transform="translate(18.670937 151.372776)rotate(-90)scale(0.1 -0.1)">
      <use xlink:href="#DejaVuSans-43"/>
      <use x="69.824219" xlink:href="#DejaVuSans-6f"/>
      <use x="131.005859" xlink:href="#DejaVuSans-6e"/>
      <use x="194.384766" xlink:href="#DejaVuSans-74"/>
      <use x="233.59375" xlink:href="#DejaVuSans-61"/>
      <use x="294.873047" xlink:href="#DejaVuSans-63"/>
      <use x="349.853516" xlink:href="#DejaVuSans-74"/>
      <use x="389.0625" xlink:href="#DejaVuSans-20"/>
      <use x="420.849609" xlink:href="#DejaVuSans-66"/>
      <use x="456.054688" xlink:href="#DejaVuSans-72"/>
      <use x="497.136719" xlink:href="#DejaVuSans-65"/>
      <use x="558.660156" xlink:href="#DejaVuSans-71"/>
      <use x="622.136719" xlink:href="#DejaVuSans-75"/>
      <use x="685.515625" xlink:href="#DejaVuSans-65"/>
      <use x="747.039062" xlink:href="#DejaVuSans-6e"/>
      <use x="810.417969" xlink:href="#DejaVuSans-63"/>
      <use x="865.398438" xlink:href="#DejaVuSans-79"/>
     </g>
    </g>
   </g>
   <g id="patch_27">
    <path d="M 45.11 109.24 
L 45.11 101.046176 
" style="fill:none;stroke:#000000;stroke-linecap:square;stroke-linejoin:miter;stroke-width:0.8;"/>
   </g>
   <g id="patch_28">
    <path d="M 706.68 109.24 
L 706.68 101.046176 
" style="fill:none;stroke:#000000;stroke-linecap:square;stroke-linejoin:miter;stroke-width:0.8;"/>
   </g>
   <g id="patch_29">
    <path d="M 45.11 109.24 
L 706.68 109.24 
" style="fill:none;stroke:#000000;stroke-linecap:square;stroke-linejoin:miter;stroke-width:0.8;"/>
   </g>
   <g id="patch_30">
    <path d="M 45.11 101.046176 
L 706.68 101.046176 
" style="fill:none;stroke:#000000;stroke-linecap:square;stroke-linejoin:miter;stroke-width:0.8;"/>
   </g>
   <g id="text_14">
    <!-- Histogram of receptor contacts - detailed analysis -->
    <defs>
     <path d="M 4.890625 31.390625 
L 31.203125 31.390625 
L 31.203125 23.390625 
L 4.890625 23.390625 
z
" id="DejaVuSans-2d"/>
     <path d="M 9.421875 75.984375 
L 18.40625 75.984375 
L 18.40625 0 
L 9.421875 0 
z
" id="DejaVuSans-6c"/>
    </defs>
    <g transform="translate(225.698125 95.046176)scale(0.12 -0.12)">
     <use xlink:href="#DejaVuSans-48"/>
     <use x="75.195312" xlink:href="#DejaVuSans-69"/>
     <use x="102.978516" xlink:href="#DejaVuSans-73"/>
     <use x="155.078125" xlink:href="#DejaVuSans-74"/>
     <use x="194.287109" xlink:href="#DejaVuSans-6f"/>
     <use x="255.46875" xlink:href="#DejaVuSans-67"/>
     <use x="318.945312" xlink:href="#DejaVuSans-72"/>
     <use x="360.058594" xlink:href="#DejaVuSans-61"/>
     <use x="421.337891" xlink:href="#DejaVuSans-6d"/>
     <use x="518.75" xlink:href="#DejaVuSans-20"/>
     <use x="550.537109" xlink:href="#DejaVuSans-6f"/>
     <use x="611.71875" xlink:href="#DejaVuSans-66"/>
     <use x="646.923828" xlink:href="#DejaVuSans-20"/>
     <use x="678.710938" xlink:href="#DejaVuSans-72"/>
     <use x="719.792969" xlink:href="#DejaVuSans-65"/>
     <use x="781.316406" xlink:href="#DejaVuSans-63"/>
     <use x="836.296875" xlink:href="#DejaVuSans-65"/>
     <use x="897.820312" xlink:href="#DejaVuSans-70"/>
     <use x="961.296875" xlink:href="#DejaVuSans-74"/>
     <use x="1000.505859" xlink:href="#DejaVuSans-6f"/>
     <use x="1061.6875" xlink:href="#DejaVuSans-72"/>
     <use x="1102.800781" xlink:href="#DejaVuSans-20"/>
     <use x="1134.587891" xlink:href="#DejaVuSans-63"/>
     <use x="1189.568359" xlink:href="#DejaVuSans-6f"/>
     <use x="1250.75" xlink:href="#DejaVuSans-6e"/>
     <use x="1314.128906" xlink:href="#DejaVuSans-74"/>
     <use x="1353.337891" xlink:href="#DejaVuSans-61"/>
     <use x="1414.617188" xlink:href="#DejaVuSans-63"/>
     <use x="1469.597656" xlink:href="#DejaVuSans-74"/>
     <use x="1508.806641" xlink:href="#DejaVuSans-73"/>
     <use x="1560.90625" xlink:href="#DejaVuSans-20"/>
     <use x="1592.693359" xlink:href="#DejaVuSans-2d"/>
     <use x="1628.777344" xlink:href="#DejaVuSans-20"/>
     <use x="1660.564453" xlink:href="#DejaVuSans-64"/>
     <use x="1724.041016" xlink:href="#DejaVuSans-65"/>
     <use x="1785.564453" xlink:href="#DejaVuSans-74"/>
     <use x="1824.773438" xlink:href="#DejaVuSans-61"/>
     <use x="1886.052734" xlink:href="#DejaVuSans-69"/>
     <use x="1913.835938" xlink:href="#DejaVuSans-6c"/>
     <use x="1941.619141" xlink:href="#DejaVuSans-65"/>
     <use x="2003.142578" xlink:href="#DejaVuSans-64"/>
     <use x="2066.619141" xlink:href="#DejaVuSans-20"/>
     <use x="2098.40625" xlink:href="#DejaVuSans-61"/>
     <use x="2159.685547" xlink:href="#DejaVuSans-6e"/>
     <use x="2223.064453" xlink:href="#DejaVuSans-61"/>
     <use x="2284.34375" xlink:href="#DejaVuSans-6c"/>
     <use x="2312.126953" xlink:href="#DejaVuSans-79"/>
     <use x="2371.306641" xlink:href="#DejaVuSans-73"/>
     <use x="2423.40625" xlink:href="#DejaVuSans-69"/>
     <use x="2451.189453" xlink:href="#DejaVuSans-73"/>
    </g>
   </g>
  </g>
  <g id="axes_3">
   <g id="patch_31">
    <path d="M 45.11 177.64 
L 706.68 177.64 
L 706.68 169.446176 
L 45.11 169.446176 
z
" style="fill:#ffffff;"/>
   </g>
   <g id="patch_32">
    <path clip-path="url(#p327d92e166)" d="M 75.181364 177.64 
L 86.132021 177.64 
L 86.132021 177.64 
L 75.181364 177.64 
z
" style="fill:#666666;"/>
   </g>
   <g id="patch_33">
    <path clip-path="url(#p327d92e166)" d="M 85.917302 177.64 
L 96.867959 177.64 
L 96.867959 177.64 
L 85.917302 177.64 
z
" style="fill:#666666;"/>
   </g>
   <g id="patch_34">
    <path clip-path="url(#p327d92e166)" d="M 96.653241 177.64 
L 107.603898 177.64 
L 107.603898 177.64 
L 96.653241 177.64 
z
" style="fill:#666666;"/>
   </g>
   <g id="patch_35">
    <path clip-path="url(#p327d92e166)" d="M 107.389179 177.64 
L 118.339836 177.64 
L 118.339836 177.64 
L 107.389179 177.64 
z
" style="fill:#666666;"/>
   </g>
   <g id="patch_36">
    <path clip-path="url(#p327d92e166)" d="M 118.125117 177.64 
L 129.075775 177.64 
L 129.075775 177.64 
L 118.125117 177.64 
z
" style="fill:#666666;"/>
   </g>
   <g id="patch_37">
    <path clip-path="url(#p327d92e166)" d="M 128.861056 177.64 
L 139.811713 177.64 
L 139.811713 177.64 
L 128.861056 177.64 
z
" style="fill:#666666;"/>
   </g>
   <g id="patch_38">
    <path clip-path="url(#p327d92e166)" d="M 139.596994 177.64 
L 150.547652 177.64 
L 150.547652 177.64 
L 139.596994 177.64 
z
" style="fill:#666666;"/>
   </g>
   <g id="patch_39">
    <path clip-path="url(#p327d92e166)" d="M 150.332933 177.64 
L 161.28359 177.64 
L 161.28359 177.64 
L 150.332933 177.64 
z
" style="fill:#666666;"/>
   </g>
   <g id="patch_40">
    <path clip-path="url(#p327d92e166)" d="M 161.068871 177.64 
L 172.019529 177.64 
L 172.019529 177.64 
L 161.068871 177.64 
z
" style="fill:#666666;"/>
   </g>
   <g id="patch_41">
    <path clip-path="url(#p327d92e166)" d="M 171.80481 177.64 
L 182.755467 177.64 
L 182.755467 177.64 
L 171.80481 177.64 
z
" style="fill:#666666;"/>
   </g>
   <g id="patch_42">
    <path clip-path="url(#p327d92e166)" d="M 182.540748 177.64 
L 193.491406 177.64 
L 193.491406 177.64 
L 182.540748 177.64 
z
" style="fill:#666666;"/>
   </g>
   <g id="patch_43">
    <path clip-path="url(#p327d92e166)" d="M 193.276687 177.64 
L 204.227344 177.64 
L 204.227344 177.64 
L 193.276687 177.64 
z
" style="fill:#666666;"/>
   </g>
   <g id="patch_44">
    <path clip-path="url(#p327d92e166)" d="M 204.012625 177.64 
L 214.963282 177.64 
L 214.963282 177.64 
L 204.012625 177.64 
z
" style="fill:#666666;"/>
   </g>
   <g id="patch_45">
    <path clip-path="url(#p327d92e166)" d="M 214.748564 177.64 
L 225.699221 177.64 
L 225.699221 177.64 
L 214.748564 177.64 
z
" style="fill:#666666;"/>
   </g>
   <g id="patch_46">
    <path clip-path="url(#p327d92e166)" d="M 225.484502 177.64 
L 236.435159 177.64 
L 236.435159 177.64 
L 225.484502 177.64 
z
" style="fill:#666666;"/>
   </g>
   <g id="patch_47">
    <path clip-path="url(#p327d92e166)" d="M 236.220441 177.64 
L 247.171098 177.64 
L 247.171098 177.64 
L 236.220441 177.64 
z
" style="fill:#666666;"/>
   </g>
   <g id="patch_48">
    <path clip-path="url(#p327d92e166)" d="M 246.956379 177.64 
L 257.907036 177.64 
L 257.907036 177.64 
L 246.956379 177.64 
z
" style="fill:#666666;"/>
   </g>
   <g id="patch_49">
    <path clip-path="url(#p327d92e166)" d="M 257.692318 177.64 
L 268.642975 177.64 
L 268.642975 177.64 
L 257.692318 177.64 
z
" style="fill:#666666;"/>
   </g>
   <g id="patch_50">
    <path clip-path="url(#p327d92e166)" d="M 268.428256 177.64 
L 279.378913 177.64 
L 279.378913 177.64 
L 268.428256 177.64 
z
" style="fill:#666666;"/>
   </g>
   <g id="patch_51">
    <path clip-path="url(#p327d92e166)" d="M 279.164194 177.64 
L 290.114852 177.64 
L 290.114852 177.64 
L 279.164194 177.64 
z
" style="fill:#666666;"/>
   </g>
   <g id="patch_52">
    <path clip-path="url(#p327d92e166)" d="M 289.900133 177.64 
L 300.85079 177.64 
L 300.85079 177.64 
L 289.900133 177.64 
z
" style="fill:#666666;"/>
   </g>
   <g id="patch_53">
    <path clip-path="url(#p327d92e166)" d="M 300.636071 177.64 
L 311.586729 177.64 
L 311.586729 177.64 
L 300.636071 177.64 
z
" style="fill:#666666;"/>
   </g>
   <g id="patch_54">
    <path clip-path="url(#p327d92e166)" d="M 311.37201 177.64 
L 322.322667 177.64 
L 322.322667 177.64 
L 311.37201 177.64 
z
" style="fill:#666666;"/>
   </g>
   <g id="patch_55">
    <path clip-path="url(#p327d92e166)" d="M 322.107948 177.64 
L 333.058606 177.64 
L 333.058606 177.64 
L 322.107948 177.64 
z
" style="fill:#666666;"/>
   </g>
   <g id="patch_56">
    <path clip-path="url(#p327d92e166)" d="M 332.843887 177.64 
L 343.794544 177.64 
L 343.794544 177.64 
L 332.843887 177.64 
z
" style="fill:#666666;"/>
   </g>
   <g id="patch_57">
    <path clip-path="url(#p327d92e166)" d="M 343.579825 177.64 
L 354.530482 177.64 
L 354.530482 177.64 
L 343.579825 177.64 
z
" style="fill:#666666;"/>
   </g>
   <g id="patch_58">
    <path clip-path="url(#p327d92e166)" d="M 354.315764 177.64 
L 365.266421 177.64 
L 365.266421 177.64 
L 354.315764 177.64 
z
" style="fill:#666666;"/>
   </g>
   <g id="patch_59">
    <path clip-path="url(#p327d92e166)" d="M 365.051702 177.64 
L 376.002359 177.64 
L 376.002359 177.64 
L 365.051702 177.64 
z
" style="fill:#666666;"/>
   </g>
   <g id="patch_60">
    <path clip-path="url(#p327d92e166)" d="M 375.787641 177.64 
L 386.738298 177.64 
L 386.738298 177.64 
L 375.787641 177.64 
z
" style="fill:#666666;"/>
   </g>
   <g id="patch_61">
    <path clip-path="url(#p327d92e166)" d="M 386.523579 177.64 
L 397.474236 177.64 
L 397.474236 177.64 
L 386.523579 177.64 
z
" style="fill:#666666;"/>
   </g>
   <g id="patch_62">
    <path clip-path="url(#p327d92e166)" d="M 397.259518 177.64 
L 408.210175 177.64 
L 408.210175 177.64 
L 397.259518 177.64 
z
" style="fill:#666666;"/>
   </g>
   <g id="patch_63">
    <path clip-path="url(#p327d92e166)" d="M 407.995456 177.64 
L 418.946113 177.64 
L 418.946113 177.64 
L 407.995456 177.64 
z
" style="fill:#666666;"/>
   </g>
   <g id="patch_64">
    <path clip-path="url(#p327d92e166)" d="M 418.731394 177.64 
L 429.682052 177.64 
L 429.682052 177.64 
L 418.731394 177.64 
z
" style="fill:#666666;"/>
   </g>
   <g id="patch_65">
    <path clip-path="url(#p327d92e166)" d="M 429.467333 177.64 
L 440.41799 177.64 
L 440.41799 177.64 
L 429.467333 177.64 
z
" style="fill:#666666;"/>
   </g>
   <g id="patch_66">
    <path clip-path="url(#p327d92e166)" d="M 440.203271 177.64 
L 451.153929 177.64 
L 451.153929 177.64 
L 440.203271 177.64 
z
" style="fill:#666666;"/>
   </g>
   <g id="patch_67">
    <path clip-path="url(#p327d92e166)" d="M 450.93921 177.64 
L 461.889867 177.64 
L 461.889867 177.64 
L 450.93921 177.64 
z
" style="fill:#666666;"/>
   </g>
   <g id="patch_68">
    <path clip-path="url(#p327d92e166)" d="M 461.675148 177.64 
L 472.625806 177.64 
L 472.625806 177.64 
L 461.675148 177.64 
z
" style="fill:#666666;"/>
   </g>
   <g id="patch_69">
    <path clip-path="url(#p327d92e166)" d="M 472.411087 177.64 
L 483.361744 177.64 
L 483.361744 177.64 
L 472.411087 177.64 
z
" style="fill:#666666;"/>
   </g>
   <g id="patch_70">
    <path clip-path="url(#p327d92e166)" d="M 483.147025 177.64 
L 494.097682 177.64 
L 494.097682 177.64 
L 483.147025 177.64 
z
" style="fill:#666666;"/>
   </g>
   <g id="patch_71">
    <path clip-path="url(#p327d92e166)" d="M 493.882964 177.64 
L 504.833621 177.64 
L 504.833621 177.64 
L 493.882964 177.64 
z
" style="fill:#666666;"/>
   </g>
   <g id="patch_72">
    <path clip-path="url(#p327d92e166)" d="M 504.618902 177.64 
L 515.569559 177.64 
L 515.569559 177.64 
L 504.618902 177.64 
z
" style="fill:#666666;"/>
   </g>
   <g id="patch_73">
    <path clip-path="url(#p327d92e166)" d="M 515.354841 177.64 
L 526.305498 177.64 
L 526.305498 177.64 
L 515.354841 177.64 
z
" style="fill:#666666;"/>
   </g>
   <g id="patch_74">
    <path clip-path="url(#p327d92e166)" d="M 526.090779 177.64 
L 537.041436 177.64 
L 537.041436 177.64 
L 526.090779 177.64 
z
" style="fill:#666666;"/>
   </g>
   <g id="patch_75">
    <path clip-path="url(#p327d92e166)" d="M 536.826718 177.64 
L 547.777375 177.64 
L 547.777375 177.64 
L 536.826718 177.64 
z
" style="fill:#666666;"/>
   </g>
   <g id="patch_76">
    <path clip-path="url(#p327d92e166)" d="M 547.562656 177.64 
L 558.513313 177.64 
L 558.513313 177.64 
L 547.562656 177.64 
z
" style="fill:#666666;"/>
   </g>
   <g id="patch_77">
    <path clip-path="url(#p327d92e166)" d="M 558.298594 177.64 
L 569.249252 177.64 
L 569.249252 177.64 
L 558.298594 177.64 
z
" style="fill:#666666;"/>
   </g>
   <g id="patch_78">
    <path clip-path="url(#p327d92e166)" d="M 569.034533 177.64 
L 579.98519 177.64 
L 579.98519 177.64 
L 569.034533 177.64 
z
" style="fill:#666666;"/>
   </g>
   <g id="patch_79">
    <path clip-path="url(#p327d92e166)" d="M 579.770471 177.64 
L 590.721129 177.64 
L 590.721129 177.64 
L 579.770471 177.64 
z
" style="fill:#666666;"/>
   </g>
   <g id="patch_80">
    <path clip-path="url(#p327d92e166)" d="M 590.50641 177.64 
L 601.457067 177.64 
L 601.457067 177.64 
L 590.50641 177.64 
z
" style="fill:#666666;"/>
   </g>
   <g id="patch_81">
    <path clip-path="url(#p327d92e166)" d="M 601.242348 177.64 
L 612.193006 177.64 
L 612.193006 177.64 
L 601.242348 177.64 
z
" style="fill:#666666;"/>
   </g>
   <g id="patch_82">
    <path clip-path="url(#p327d92e166)" d="M 611.978287 177.64 
L 622.928944 177.64 
L 622.928944 177.64 
L 611.978287 177.64 
z
" style="fill:#666666;"/>
   </g>
   <g id="patch_83">
    <path clip-path="url(#p327d92e166)" d="M 622.714225 177.64 
L 633.664883 177.64 
L 633.664883 177.64 
L 622.714225 177.64 
z
" style="fill:#666666;"/>
   </g>
   <g id="patch_84">
    <path clip-path="url(#p327d92e166)" d="M 633.450164 177.64 
L 644.400821 177.64 
L 644.400821 177.64 
L 633.450164 177.64 
z
" style="fill:#666666;"/>
   </g>
   <g id="patch_85">
    <path clip-path="url(#p327d92e166)" d="M 644.186102 177.64 
L 655.136759 177.64 
L 655.136759 177.64 
L 644.186102 177.64 
z
" style="fill:#666666;"/>
   </g>
   <g id="patch_86">
    <path clip-path="url(#p327d92e166)" d="M 654.922041 177.64 
L 665.872698 177.64 
L 665.872698 177.64 
L 654.922041 177.64 
z
" style="fill:#666666;"/>
   </g>
   <g id="patch_87">
    <path clip-path="url(#p327d92e166)" d="M 665.657979 177.64 
L 676.608636 177.64 
L 676.608636 177.64 
L 665.657979 177.64 
z
" style="fill:#666666;"/>
   </g>
   <g id="matplotlib.axis_5">
    <g id="xtick_20">
     <g id="line2d_24">
      <g>
       <use style="stroke:#000000;stroke-width:0.8;" x="80.656692" xlink:href="#m76f3bc2679" y="177.64"/>
      </g>
     </g>
     <g id="text_15">
      <!-- A1 -->
      <defs>
       <path d="M 34.1875 63.1875 
L 20.796875 26.90625 
L 47.609375 26.90625 
z
M 28.609375 72.90625 
L 39.796875 72.90625 
L 67.578125 0 
L 57.328125 0 
L 50.6875 18.703125 
L 17.828125 18.703125 
L 11.1875 0 
L 0.78125 0 
z
" id="DejaVuSans-41"/>
      </defs>
      <g transform="translate(76.695755 189.199062)scale(0.06 -0.06)">
       <use xlink:href="#DejaVuSans-41"/>
       <use x="68.408203" xlink:href="#DejaVuSans-31"/>
      </g>
     </g>
    </g>
    <g id="xtick_21">
     <g id="line2d_25">
      <g>
       <use style="stroke:#000000;stroke-width:0.8;" x="112.864508" xlink:href="#m76f3bc2679" y="177.64"/>
      </g>
     </g>
     <g id="text_16">
      <!-- A4 -->
      <g transform="translate(108.90357 189.199062)scale(0.06 -0.06)">
       <use xlink:href="#DejaVuSans-41"/>
       <use x="68.408203" xlink:href="#DejaVuSans-34"/>
      </g>
     </g>
    </g>
    <g id="xtick_22">
     <g id="line2d_26">
      <g>
       <use style="stroke:#000000;stroke-width:0.8;" x="155.808261" xlink:href="#m76f3bc2679" y="177.64"/>
      </g>
     </g>
     <g id="text_17">
      <!-- A8 -->
      <defs>
       <path d="M 31.78125 34.625 
Q 24.75 34.625 20.71875 30.859375 
Q 16.703125 27.09375 16.703125 20.515625 
Q 16.703125 13.921875 20.71875 10.15625 
Q 24.75 6.390625 31.78125 6.390625 
Q 38.8125 6.390625 42.859375 10.171875 
Q 46.921875 13.96875 46.921875 20.515625 
Q 46.921875 27.09375 42.890625 30.859375 
Q 38.875 34.625 31.78125 34.625 
z
M 21.921875 38.8125 
Q 15.578125 40.375 12.03125 44.71875 
Q 8.5 49.078125 8.5 55.328125 
Q 8.5 64.0625 14.71875 69.140625 
Q 20.953125 74.21875 31.78125 74.21875 
Q 42.671875 74.21875 48.875 69.140625 
Q 55.078125 64.0625 55.078125 55.328125 
Q 55.078125 49.078125 51.53125 44.71875 
Q 48 40.375 41.703125 38.8125 
Q 48.828125 37.15625 52.796875 32.3125 
Q 56.78125 27.484375 56.78125 20.515625 
Q 56.78125 9.90625 50.3125 4.234375 
Q 43.84375 -1.421875 31.78125 -1.421875 
Q 19.734375 -1.421875 13.25 4.234375 
Q 6.78125 9.90625 6.78125 20.515625 
Q 6.78125 27.484375 10.78125 32.3125 
Q 14.796875 37.15625 21.921875 38.8125 
z
M 18.3125 54.390625 
Q 18.3125 48.734375 21.84375 45.5625 
Q 25.390625 42.390625 31.78125 42.390625 
Q 38.140625 42.390625 41.71875 45.5625 
Q 45.3125 48.734375 45.3125 54.390625 
Q 45.3125 60.0625 41.71875 63.234375 
Q 38.140625 66.40625 31.78125 66.40625 
Q 25.390625 66.40625 21.84375 63.234375 
Q 18.3125 60.0625 18.3125 54.390625 
z
" id="DejaVuSans-38"/>
      </defs>
      <g transform="translate(151.847324 189.199062)scale(0.06 -0.06)">
       <use xlink:href="#DejaVuSans-41"/>
       <use x="68.408203" xlink:href="#DejaVuSans-38"/>
      </g>
     </g>
    </g>
    <g id="xtick_23">
     <g id="line2d_27">
      <g>
       <use style="stroke:#000000;stroke-width:0.8;" x="198.752015" xlink:href="#m76f3bc2679" y="177.64"/>
      </g>
     </g>
     <g id="text_18">
      <!-- A12 -->
      <g transform="translate(192.882328 189.199062)scale(0.06 -0.06)">
       <use xlink:href="#DejaVuSans-41"/>
       <use x="68.408203" xlink:href="#DejaVuSans-31"/>
       <use x="132.03125" xlink:href="#DejaVuSans-32"/>
      </g>
     </g>
    </g>
    <g id="xtick_24">
     <g id="line2d_28">
      <g>
       <use style="stroke:#000000;stroke-width:0.8;" x="241.695769" xlink:href="#m76f3bc2679" y="177.64"/>
      </g>
     </g>
     <g id="text_19">
      <!-- A16 -->
      <defs>
       <path d="M 33.015625 40.375 
Q 26.375 40.375 22.484375 35.828125 
Q 18.609375 31.296875 18.609375 23.390625 
Q 18.609375 15.53125 22.484375 10.953125 
Q 26.375 6.390625 33.015625 6.390625 
Q 39.65625 6.390625 43.53125 10.953125 
Q 47.40625 15.53125 47.40625 23.390625 
Q 47.40625 31.296875 43.53125 35.828125 
Q 39.65625 40.375 33.015625 40.375 
z
M 52.59375 71.296875 
L 52.59375 62.3125 
Q 48.875 64.0625 45.09375 64.984375 
Q 41.3125 65.921875 37.59375 65.921875 
Q 27.828125 65.921875 22.671875 59.328125 
Q 17.53125 52.734375 16.796875 39.40625 
Q 19.671875 43.65625 24.015625 45.921875 
Q 28.375 48.1875 33.59375 48.1875 
Q 44.578125 48.1875 50.953125 41.515625 
Q 57.328125 34.859375 57.328125 23.390625 
Q 57.328125 12.15625 50.6875 5.359375 
Q 44.046875 -1.421875 33.015625 -1.421875 
Q 20.359375 -1.421875 13.671875 8.265625 
Q 6.984375 17.96875 6.984375 36.375 
Q 6.984375 53.65625 15.1875 63.9375 
Q 23.390625 74.21875 37.203125 74.21875 
Q 40.921875 74.21875 44.703125 73.484375 
Q 48.484375 72.75 52.59375 71.296875 
z
" id="DejaVuSans-36"/>
      </defs>
      <g transform="translate(235.826082 189.199062)scale(0.06 -0.06)">
       <use xlink:href="#DejaVuSans-41"/>
       <use x="68.408203" xlink:href="#DejaVuSans-31"/>
       <use x="132.03125" xlink:href="#DejaVuSans-36"/>
      </g>
     </g>
    </g>
    <g id="xtick_25">
     <g id="line2d_29">
      <g>
       <use style="stroke:#000000;stroke-width:0.8;" x="284.639523" xlink:href="#m76f3bc2679" y="177.64"/>
      </g>
     </g>
     <g id="text_20">
      <!-- A20 -->
      <g transform="translate(278.769836 189.199062)scale(0.06 -0.06)">
       <use xlink:href="#DejaVuSans-41"/>
       <use x="68.408203" xlink:href="#DejaVuSans-32"/>
       <use x="132.03125" xlink:href="#DejaVuSans-30"/>
      </g>
     </g>
    </g>
    <g id="xtick_26">
     <g id="line2d_30">
      <g>
       <use style="stroke:#000000;stroke-width:0.8;" x="327.583277" xlink:href="#m76f3bc2679" y="177.64"/>
      </g>
     </g>
     <g id="text_21">
      <!-- A24 -->
      <g transform="translate(321.713589 189.199062)scale(0.06 -0.06)">
       <use xlink:href="#DejaVuSans-41"/>
       <use x="68.408203" xlink:href="#DejaVuSans-32"/>
       <use x="132.03125" xlink:href="#DejaVuSans-34"/>
      </g>
     </g>
    </g>
    <g id="xtick_27">
     <g id="line2d_31">
      <g>
       <use style="stroke:#000000;stroke-width:0.8;" x="370.527031" xlink:href="#m76f3bc2679" y="177.64"/>
      </g>
     </g>
     <g id="text_22">
      <!-- A28 -->
      <g transform="translate(364.657343 189.199062)scale(0.06 -0.06)">
       <use xlink:href="#DejaVuSans-41"/>
       <use x="68.408203" xlink:href="#DejaVuSans-32"/>
       <use x="132.03125" xlink:href="#DejaVuSans-38"/>
      </g>
     </g>
    </g>
    <g id="xtick_28">
     <g id="line2d_32">
      <g>
       <use style="stroke:#000000;stroke-width:0.8;" x="413.470785" xlink:href="#m76f3bc2679" y="177.64"/>
      </g>
     </g>
     <g id="text_23">
      <!-- A32 -->
      <g transform="translate(407.601097 189.199062)scale(0.06 -0.06)">
       <use xlink:href="#DejaVuSans-41"/>
       <use x="68.408203" xlink:href="#DejaVuSans-33"/>
       <use x="132.03125" xlink:href="#DejaVuSans-32"/>
      </g>
     </g>
    </g>
    <g id="xtick_29">
     <g id="line2d_33">
      <g>
       <use style="stroke:#000000;stroke-width:0.8;" x="456.414538" xlink:href="#m76f3bc2679" y="177.64"/>
      </g>
     </g>
     <g id="text_24">
      <!-- A36 -->
      <g transform="translate(450.544851 189.199062)scale(0.06 -0.06)">
       <use xlink:href="#DejaVuSans-41"/>
       <use x="68.408203" xlink:href="#DejaVuSans-33"/>
       <use x="132.03125" xlink:href="#DejaVuSans-36"/>
      </g>
     </g>
    </g>
    <g id="xtick_30">
     <g id="line2d_34">
      <g>
       <use style="stroke:#000000;stroke-width:0.8;" x="499.358292" xlink:href="#m76f3bc2679" y="177.64"/>
      </g>
     </g>
     <g id="text_25">
      <!-- A40 -->
      <g transform="translate(493.488605 189.199062)scale(0.06 -0.06)">
       <use xlink:href="#DejaVuSans-41"/>
       <use x="68.408203" xlink:href="#DejaVuSans-34"/>
       <use x="132.03125" xlink:href="#DejaVuSans-30"/>
      </g>
     </g>
    </g>
    <g id="xtick_31">
     <g id="line2d_35">
      <g>
       <use style="stroke:#000000;stroke-width:0.8;" x="542.302046" xlink:href="#m76f3bc2679" y="177.64"/>
      </g>
     </g>
     <g id="text_26">
      <!-- A44 -->
      <g transform="translate(536.432359 189.199062)scale(0.06 -0.06)">
       <use xlink:href="#DejaVuSans-41"/>
       <use x="68.408203" xlink:href="#DejaVuSans-34"/>
       <use x="132.03125" xlink:href="#DejaVuSans-34"/>
      </g>
     </g>
    </g>
    <g id="xtick_32">
     <g id="line2d_36">
      <g>
       <use style="stroke:#000000;stroke-width:0.8;" x="585.2458" xlink:href="#m76f3bc2679" y="177.64"/>
      </g>
     </g>
     <g id="text_27">
      <!-- A48 -->
      <g transform="translate(579.376113 189.199062)scale(0.06 -0.06)">
       <use xlink:href="#DejaVuSans-41"/>
       <use x="68.408203" xlink:href="#DejaVuSans-34"/>
       <use x="132.03125" xlink:href="#DejaVuSans-38"/>
      </g>
     </g>
    </g>
    <g id="xtick_33">
     <g id="line2d_37">
      <g>
       <use style="stroke:#000000;stroke-width:0.8;" x="628.189554" xlink:href="#m76f3bc2679" y="177.64"/>
      </g>
     </g>
     <g id="text_28">
      <!-- A52 -->
      <g transform="translate(622.319866 189.199062)scale(0.06 -0.06)">
       <use xlink:href="#DejaVuSans-41"/>
       <use x="68.408203" xlink:href="#DejaVuSans-35"/>
       <use x="132.03125" xlink:href="#DejaVuSans-32"/>
      </g>
     </g>
    </g>
    <g id="xtick_34">
     <g id="line2d_38">
      <g>
       <use style="stroke:#000000;stroke-width:0.8;" x="671.133308" xlink:href="#m76f3bc2679" y="177.64"/>
      </g>
     </g>
     <g id="text_29">
      <!-- A56 -->
      <g transform="translate(665.26362 189.199062)scale(0.06 -0.06)">
       <use xlink:href="#DejaVuSans-41"/>
       <use x="68.408203" xlink:href="#DejaVuSans-35"/>
       <use x="132.03125" xlink:href="#DejaVuSans-36"/>
      </g>
     </g>
    </g>
    <g id="text_30">
     <!-- Residue id -->
     <g transform="translate(349.781719 202.045312)scale(0.1 -0.1)">
      <use xlink:href="#DejaVuSans-52"/>
      <use x="69.419922" xlink:href="#DejaVuSans-65"/>
      <use x="130.943359" xlink:href="#DejaVuSans-73"/>
      <use x="183.042969" xlink:href="#DejaVuSans-69"/>
      <use x="210.826172" xlink:href="#DejaVuSans-64"/>
      <use x="274.302734" xlink:href="#DejaVuSans-75"/>
      <use x="337.681641" xlink:href="#DejaVuSans-65"/>
      <use x="399.205078" xlink:href="#DejaVuSans-20"/>
      <use x="430.992188" xlink:href="#DejaVuSans-69"/>
      <use x="458.775391" xlink:href="#DejaVuSans-64"/>
     </g>
    </g>
   </g>
   <g id="matplotlib.axis_6">
    <g id="ytick_5">
     <g id="line2d_39">
      <g>
       <use style="stroke:#000000;stroke-width:0.8;" x="45.11" xlink:href="#m1a676601a9" y="177.64"/>
      </g>
     </g>
     <g id="text_31">
      <!-- 0.00 -->
      <g transform="translate(24.750625 179.919531)scale(0.06 -0.06)">
       <use xlink:href="#DejaVuSans-30"/>
       <use x="63.623047" xlink:href="#DejaVuSans-2e"/>
       <use x="95.410156" xlink:href="#DejaVuSans-30"/>
       <use x="159.033203" xlink:href="#DejaVuSans-30"/>
      </g>
     </g>
    </g>
    <g id="ytick_6">
     <g id="line2d_40">
      <g>
       <use style="stroke:#000000;stroke-width:0.8;" x="45.11" xlink:href="#m1a676601a9" y="169.446176"/>
      </g>
     </g>
     <g id="text_32">
      <!-- 0.05 -->
      <g transform="translate(24.750625 171.725708)scale(0.06 -0.06)">
       <use xlink:href="#DejaVuSans-30"/>
       <use x="63.623047" xlink:href="#DejaVuSans-2e"/>
       <use x="95.410156" xlink:href="#DejaVuSans-30"/>
       <use x="159.033203" xlink:href="#DejaVuSans-35"/>
      </g>
     </g>
    </g>
    <g id="text_33">
     <!-- Contact frequency -->
     <g transform="translate(18.670937 219.772776)rotate(-90)scale(0.1 -0.1)">
      <use xlink:href="#DejaVuSans-43"/>
      <use x="69.824219" xlink:href="#DejaVuSans-6f"/>
      <use x="131.005859" xlink:href="#DejaVuSans-6e"/>
      <use x="194.384766" xlink:href="#DejaVuSans-74"/>
      <use x="233.59375" xlink:href="#DejaVuSans-61"/>
      <use x="294.873047" xlink:href="#DejaVuSans-63"/>
      <use x="349.853516" xlink:href="#DejaVuSans-74"/>
      <use x="389.0625" xlink:href="#DejaVuSans-20"/>
      <use x="420.849609" xlink:href="#DejaVuSans-66"/>
      <use x="456.054688" xlink:href="#DejaVuSans-72"/>
      <use x="497.136719" xlink:href="#DejaVuSans-65"/>
      <use x="558.660156" xlink:href="#DejaVuSans-71"/>
      <use x="622.136719" xlink:href="#DejaVuSans-75"/>
      <use x="685.515625" xlink:href="#DejaVuSans-65"/>
      <use x="747.039062" xlink:href="#DejaVuSans-6e"/>
      <use x="810.417969" xlink:href="#DejaVuSans-63"/>
      <use x="865.398438" xlink:href="#DejaVuSans-79"/>
     </g>
    </g>
   </g>
   <g id="patch_88">
    <path d="M 45.11 177.64 
L 45.11 169.446176 
" style="fill:none;stroke:#000000;stroke-linecap:square;stroke-linejoin:miter;stroke-width:0.8;"/>
   </g>
   <g id="patch_89">
    <path d="M 706.68 177.64 
L 706.68 169.446176 
" style="fill:none;stroke:#000000;stroke-linecap:square;stroke-linejoin:miter;stroke-width:0.8;"/>
   </g>
   <g id="patch_90">
    <path d="M 45.11 177.64 
L 706.68 177.64 
" style="fill:none;stroke:#000000;stroke-linecap:square;stroke-linejoin:miter;stroke-width:0.8;"/>
   </g>
   <g id="patch_91">
    <path d="M 45.11 169.446176 
L 706.68 169.446176 
" style="fill:none;stroke:#000000;stroke-linecap:square;stroke-linejoin:miter;stroke-width:0.8;"/>
   </g>
   <g id="text_34">
    <!-- Histogram of receptor contacts - summary analysis -->
    <g transform="translate(221.75125 163.446176)scale(0.12 -0.12)">
     <use xlink:href="#DejaVuSans-48"/>
     <use x="75.195312" xlink:href="#DejaVuSans-69"/>
     <use x="102.978516" xlink:href="#DejaVuSans-73"/>
     <use x="155.078125" xlink:href="#DejaVuSans-74"/>
     <use x="194.287109" xlink:href="#DejaVuSans-6f"/>
     <use x="255.46875" xlink:href="#DejaVuSans-67"/>
     <use x="318.945312" xlink:href="#DejaVuSans-72"/>
     <use x="360.058594" xlink:href="#DejaVuSans-61"/>
     <use x="421.337891" xlink:href="#DejaVuSans-6d"/>
     <use x="518.75" xlink:href="#DejaVuSans-20"/>
     <use x="550.537109" xlink:href="#DejaVuSans-6f"/>
     <use x="611.71875" xlink:href="#DejaVuSans-66"/>
     <use x="646.923828" xlink:href="#DejaVuSans-20"/>
     <use x="678.710938" xlink:href="#DejaVuSans-72"/>
     <use x="719.792969" xlink:href="#DejaVuSans-65"/>
     <use x="781.316406" xlink:href="#DejaVuSans-63"/>
     <use x="836.296875" xlink:href="#DejaVuSans-65"/>
     <use x="897.820312" xlink:href="#DejaVuSans-70"/>
     <use x="961.296875" xlink:href="#DejaVuSans-74"/>
     <use x="1000.505859" xlink:href="#DejaVuSans-6f"/>
     <use x="1061.6875" xlink:href="#DejaVuSans-72"/>
     <use x="1102.800781" xlink:href="#DejaVuSans-20"/>
     <use x="1134.587891" xlink:href="#DejaVuSans-63"/>
     <use x="1189.568359" xlink:href="#DejaVuSans-6f"/>
     <use x="1250.75" xlink:href="#DejaVuSans-6e"/>
     <use x="1314.128906" xlink:href="#DejaVuSans-74"/>
     <use x="1353.337891" xlink:href="#DejaVuSans-61"/>
     <use x="1414.617188" xlink:href="#DejaVuSans-63"/>
     <use x="1469.597656" xlink:href="#DejaVuSans-74"/>
     <use x="1508.806641" xlink:href="#DejaVuSans-73"/>
     <use x="1560.90625" xlink:href="#DejaVuSans-20"/>
     <use x="1592.693359" xlink:href="#DejaVuSans-2d"/>
     <use x="1628.777344" xlink:href="#DejaVuSans-20"/>
     <use x="1660.564453" xlink:href="#DejaVuSans-73"/>
     <use x="1712.664062" xlink:href="#DejaVuSans-75"/>
     <use x="1776.042969" xlink:href="#DejaVuSans-6d"/>
     <use x="1873.455078" xlink:href="#DejaVuSans-6d"/>
     <use x="1970.867188" xlink:href="#DejaVuSans-61"/>
     <use x="2032.146484" xlink:href="#DejaVuSans-72"/>
     <use x="2073.259766" xlink:href="#DejaVuSans-79"/>
     <use x="2132.439453" xlink:href="#DejaVuSans-20"/>
     <use x="2164.226562" xlink:href="#DejaVuSans-61"/>
     <use x="2225.505859" xlink:href="#DejaVuSans-6e"/>
     <use x="2288.884766" xlink:href="#DejaVuSans-61"/>
     <use x="2350.164062" xlink:href="#DejaVuSans-6c"/>
     <use x="2377.947266" xlink:href="#DejaVuSans-79"/>
     <use x="2437.126953" xlink:href="#DejaVuSans-73"/>
     <use x="2489.226562" xlink:href="#DejaVuSans-69"/>
     <use x="2517.009766" xlink:href="#DejaVuSans-73"/>
    </g>
   </g>
  </g>
 </g>
 <defs>
  <clipPath id="p93454f6e6f">
   <rect height="8.193824" width="661.57" x="45.11" y="32.646176"/>
  </clipPath>
  <clipPath id="pac59a76563">
   <rect height="8.193824" width="661.57" x="45.11" y="101.046176"/>
  </clipPath>
  <clipPath id="p327d92e166">
   <rect height="8.193824" width="661.57" x="45.11" y="169.446176"/>
  </clipPath>
 </defs>
</svg>
