<?xml version="1.0" encoding="utf-8" standalone="no"?>
<!DOCTYPE svg PUBLIC "-//W3C//DTD SVG 1.1//EN"
  "http://www.w3.org/Graphics/SVG/1.1/DTD/svg11.dtd">
<!-- Created with matplotlib (http://matplotlib.org/) -->
<svg height="345pt" version="1.1" viewBox="0 0 460 345" width="460pt" xmlns="http://www.w3.org/2000/svg" xmlns:xlink="http://www.w3.org/1999/xlink">
 <defs>
  <style type="text/css">
*{stroke-linecap:butt;stroke-linejoin:round;}
  </style>
 </defs>
 <g id="figure_1">
  <g id="patch_1">
   <path d="M 0 345.6 
L 460.8 345.6 
L 460.8 0 
L 0 0 
z
" style="fill:#ffffff;"/>
  </g>
  <g id="axes_1">
   <g id="patch_2">
    <path d="M 44.57 287.71 
L 447.48 287.71 
L 447.48 13.32 
L 44.57 13.32 
z
" style="fill:#ffffff;"/>
   </g>
   <g id="matplotlib.axis_1">
    <g id="xtick_1">
     <g id="line2d_1">
      <defs>
       <path d="M 0 0 
L 0 3.5 
" id="m65ae9feacf" style="stroke:#000000;stroke-width:0.8;"/>
      </defs>
      <g>
       <use style="stroke:#000000;stroke-width:0.8;" x="44.57" xlink:href="#m65ae9feacf" y="287.71"/>
      </g>
     </g>
     <g id="text_1">
      <!-- A1 -->
      <defs>
       <path d="M 34.1875 63.1875 
L 20.796875 26.90625 
L 47.609375 26.90625 
z
M 28.609375 72.90625 
L 39.796875 72.90625 
L 67.578125 0 
L 57.328125 0 
L 50.6875 18.703125 
L 17.828125 18.703125 
L 11.1875 0 
L 0.78125 0 
z
" id="DejaVuSans-41"/>
       <path d="M 12.40625 8.296875 
L 28.515625 8.296875 
L 28.515625 63.921875 
L 10.984375 60.40625 
L 10.984375 69.390625 
L 28.421875 72.90625 
L 38.28125 72.90625 
L 38.28125 8.296875 
L 54.390625 8.296875 
L 54.390625 0 
L 12.40625 0 
z
" id="DejaVuSans-31"/>
      </defs>
      <g transform="translate(47.329375 307.913125)rotate(-90)scale(0.1 -0.1)">
       <use xlink:href="#DejaVuSans-41"/>
       <use x="68.408203" xlink:href="#DejaVuSans-31"/>
      </g>
     </g>
    </g>
    <g id="xtick_2">
     <g id="line2d_2">
      <g>
       <use style="stroke:#000000;stroke-width:0.8;" x="61.642458" xlink:href="#m65ae9feacf" y="287.71"/>
      </g>
     </g>
     <g id="text_2">
      <!-- A6 -->
      <defs>
       <path d="M 33.015625 40.375 
Q 26.375 40.375 22.484375 35.828125 
Q 18.609375 31.296875 18.609375 23.390625 
Q 18.609375 15.53125 22.484375 10.953125 
Q 26.375 6.390625 33.015625 6.390625 
Q 39.65625 6.390625 43.53125 10.953125 
Q 47.40625 15.53125 47.40625 23.390625 
Q 47.40625 31.296875 43.53125 35.828125 
Q 39.65625 40.375 33.015625 40.375 
z
M 52.59375 71.296875 
L 52.59375 62.3125 
Q 48.875 64.0625 45.09375 64.984375 
Q 41.3125 65.921875 37.59375 65.921875 
Q 27.828125 65.921875 22.671875 59.328125 
Q 17.53125 52.734375 16.796875 39.40625 
Q 19.671875 43.65625 24.015625 45.921875 
Q 28.375 48.1875 33.59375 48.1875 
Q 44.578125 48.1875 50.953125 41.515625 
Q 57.328125 34.859375 57.328125 23.390625 
Q 57.328125 12.15625 50.6875 5.359375 
Q 44.046875 -1.421875 33.015625 -1.421875 
Q 20.359375 -1.421875 13.671875 8.265625 
Q 6.984375 17.96875 6.984375 36.375 
Q 6.984375 53.65625 15.1875 63.9375 
Q 23.390625 74.21875 37.203125 74.21875 
Q 40.921875 74.21875 44.703125 73.484375 
Q 48.484375 72.75 52.59375 71.296875 
z
" id="DejaVuSans-36"/>
      </defs>
      <g transform="translate(64.401833 307.913125)rotate(-90)scale(0.1 -0.1)">
       <use xlink:href="#DejaVuSans-41"/>
       <use x="68.408203" xlink:href="#DejaVuSans-36"/>
      </g>
     </g>
    </g>
    <g id="xtick_3">
     <g id="line2d_3">
      <g>
       <use style="stroke:#000000;stroke-width:0.8;" x="78.714915" xlink:href="#m65ae9feacf" y="287.71"/>
      </g>
     </g>
     <g id="text_3">
      <!-- A11 -->
      <g transform="translate(81.47429 314.275625)rotate(-90)scale(0.1 -0.1)">
       <use xlink:href="#DejaVuSans-41"/>
       <use x="68.408203" xlink:href="#DejaVuSans-31"/>
       <use x="132.03125" xlink:href="#DejaVuSans-31"/>
      </g>
     </g>
    </g>
    <g id="xtick_4">
     <g id="line2d_4">
      <g>
       <use style="stroke:#000000;stroke-width:0.8;" x="95.787373" xlink:href="#m65ae9feacf" y="287.71"/>
      </g>
     </g>
     <g id="text_4">
      <!-- A16 -->
      <g transform="translate(98.546748 314.275625)rotate(-90)scale(0.1 -0.1)">
       <use xlink:href="#DejaVuSans-41"/>
       <use x="68.408203" xlink:href="#DejaVuSans-31"/>
       <use x="132.03125" xlink:href="#DejaVuSans-36"/>
      </g>
     </g>
    </g>
    <g id="xtick_5">
     <g id="line2d_5">
      <g>
       <use style="stroke:#000000;stroke-width:0.8;" x="112.859831" xlink:href="#m65ae9feacf" y="287.71"/>
      </g>
     </g>
     <g id="text_5">
      <!-- A21 -->
      <defs>
       <path d="M 19.1875 8.296875 
L 53.609375 8.296875 
L 53.609375 0 
L 7.328125 0 
L 7.328125 8.296875 
Q 12.9375 14.109375 22.625 23.890625 
Q 32.328125 33.6875 34.8125 36.53125 
Q 39.546875 41.84375 41.421875 45.53125 
Q 43.3125 49.21875 43.3125 52.78125 
Q 43.3125 58.59375 39.234375 62.25 
Q 35.15625 65.921875 28.609375 65.921875 
Q 23.96875 65.921875 18.8125 64.3125 
Q 13.671875 62.703125 7.8125 59.421875 
L 7.8125 69.390625 
Q 13.765625 71.78125 18.9375 73 
Q 24.125 74.21875 28.421875 74.21875 
Q 39.75 74.21875 46.484375 68.546875 
Q 53.21875 62.890625 53.21875 53.421875 
Q 53.21875 48.921875 51.53125 44.890625 
Q 49.859375 40.875 45.40625 35.40625 
Q 44.1875 33.984375 37.640625 27.21875 
Q 31.109375 20.453125 19.1875 8.296875 
z
" id="DejaVuSans-32"/>
      </defs>
      <g transform="translate(115.619206 314.275625)rotate(-90)scale(0.1 -0.1)">
       <use xlink:href="#DejaVuSans-41"/>
       <use x="68.408203" xlink:href="#DejaVuSans-32"/>
       <use x="132.03125" xlink:href="#DejaVuSans-31"/>
      </g>
     </g>
    </g>
    <g id="xtick_6">
     <g id="line2d_6">
      <g>
       <use style="stroke:#000000;stroke-width:0.8;" x="129.932288" xlink:href="#m65ae9feacf" y="287.71"/>
      </g>
     </g>
     <g id="text_6">
      <!-- A26 -->
      <g transform="translate(132.691663 314.275625)rotate(-90)scale(0.1 -0.1)">
       <use xlink:href="#DejaVuSans-41"/>
       <use x="68.408203" xlink:href="#DejaVuSans-32"/>
       <use x="132.03125" xlink:href="#DejaVuSans-36"/>
      </g>
     </g>
    </g>
    <g id="xtick_7">
     <g id="line2d_7">
      <g>
       <use style="stroke:#000000;stroke-width:0.8;" x="147.004746" xlink:href="#m65ae9feacf" y="287.71"/>
      </g>
     </g>
     <g id="text_7">
      <!-- A31 -->
      <defs>
       <path d="M 40.578125 39.3125 
Q 47.65625 37.796875 51.625 33 
Q 55.609375 28.21875 55.609375 21.1875 
Q 55.609375 10.40625 48.1875 4.484375 
Q 40.765625 -1.421875 27.09375 -1.421875 
Q 22.515625 -1.421875 17.65625 -0.515625 
Q 12.796875 0.390625 7.625 2.203125 
L 7.625 11.71875 
Q 11.71875 9.328125 16.59375 8.109375 
Q 21.484375 6.890625 26.8125 6.890625 
Q 36.078125 6.890625 40.9375 10.546875 
Q 45.796875 14.203125 45.796875 21.1875 
Q 45.796875 27.640625 41.28125 31.265625 
Q 36.765625 34.90625 28.71875 34.90625 
L 20.21875 34.90625 
L 20.21875 43.015625 
L 29.109375 43.015625 
Q 36.375 43.015625 40.234375 45.921875 
Q 44.09375 48.828125 44.09375 54.296875 
Q 44.09375 59.90625 40.109375 62.90625 
Q 36.140625 65.921875 28.71875 65.921875 
Q 24.65625 65.921875 20.015625 65.03125 
Q 15.375 64.15625 9.8125 62.3125 
L 9.8125 71.09375 
Q 15.4375 72.65625 20.34375 73.4375 
Q 25.25 74.21875 29.59375 74.21875 
Q 40.828125 74.21875 47.359375 69.109375 
Q 53.90625 64.015625 53.90625 55.328125 
Q 53.90625 49.265625 50.4375 45.09375 
Q 46.96875 40.921875 40.578125 39.3125 
z
" id="DejaVuSans-33"/>
      </defs>
      <g transform="translate(149.764121 314.275625)rotate(-90)scale(0.1 -0.1)">
       <use xlink:href="#DejaVuSans-41"/>
       <use x="68.408203" xlink:href="#DejaVuSans-33"/>
       <use x="132.03125" xlink:href="#DejaVuSans-31"/>
      </g>
     </g>
    </g>
    <g id="xtick_8">
     <g id="line2d_8">
      <g>
       <use style="stroke:#000000;stroke-width:0.8;" x="164.077203" xlink:href="#m65ae9feacf" y="287.71"/>
      </g>
     </g>
     <g id="text_8">
      <!-- A36 -->
      <g transform="translate(166.836578 314.275625)rotate(-90)scale(0.1 -0.1)">
       <use xlink:href="#DejaVuSans-41"/>
       <use x="68.408203" xlink:href="#DejaVuSans-33"/>
       <use x="132.03125" xlink:href="#DejaVuSans-36"/>
      </g>
     </g>
    </g>
    <g id="xtick_9">
     <g id="line2d_9">
      <g>
       <use style="stroke:#000000;stroke-width:0.8;" x="181.149661" xlink:href="#m65ae9feacf" y="287.71"/>
      </g>
     </g>
     <g id="text_9">
      <!-- A41 -->
      <defs>
       <path d="M 37.796875 64.3125 
L 12.890625 25.390625 
L 37.796875 25.390625 
z
M 35.203125 72.90625 
L 47.609375 72.90625 
L 47.609375 25.390625 
L 58.015625 25.390625 
L 58.015625 17.1875 
L 47.609375 17.1875 
L 47.609375 0 
L 37.796875 0 
L 37.796875 17.1875 
L 4.890625 17.1875 
L 4.890625 26.703125 
z
" id="DejaVuSans-34"/>
      </defs>
      <g transform="translate(183.909036 314.275625)rotate(-90)scale(0.1 -0.1)">
       <use xlink:href="#DejaVuSans-41"/>
       <use x="68.408203" xlink:href="#DejaVuSans-34"/>
       <use x="132.03125" xlink:href="#DejaVuSans-31"/>
      </g>
     </g>
    </g>
    <g id="xtick_10">
     <g id="line2d_10">
      <g>
       <use style="stroke:#000000;stroke-width:0.8;" x="198.222119" xlink:href="#m65ae9feacf" y="287.71"/>
      </g>
     </g>
     <g id="text_10">
      <!-- A46 -->
      <g transform="translate(200.981494 314.275625)rotate(-90)scale(0.1 -0.1)">
       <use xlink:href="#DejaVuSans-41"/>
       <use x="68.408203" xlink:href="#DejaVuSans-34"/>
       <use x="132.03125" xlink:href="#DejaVuSans-36"/>
      </g>
     </g>
    </g>
    <g id="xtick_11">
     <g id="line2d_11">
      <g>
       <use style="stroke:#000000;stroke-width:0.8;" x="215.294576" xlink:href="#m65ae9feacf" y="287.71"/>
      </g>
     </g>
     <g id="text_11">
      <!-- A51 -->
      <defs>
       <path d="M 10.796875 72.90625 
L 49.515625 72.90625 
L 49.515625 64.59375 
L 19.828125 64.59375 
L 19.828125 46.734375 
Q 21.96875 47.46875 24.109375 47.828125 
Q 26.265625 48.1875 28.421875 48.1875 
Q 40.625 48.1875 47.75 41.5 
Q 54.890625 34.8125 54.890625 23.390625 
Q 54.890625 11.625 47.5625 5.09375 
Q 40.234375 -1.421875 26.90625 -1.421875 
Q 22.3125 -1.421875 17.546875 -0.640625 
Q 12.796875 0.140625 7.71875 1.703125 
L 7.71875 11.625 
Q 12.109375 9.234375 16.796875 8.0625 
Q 21.484375 6.890625 26.703125 6.890625 
Q 35.15625 6.890625 40.078125 11.328125 
Q 45.015625 15.765625 45.015625 23.390625 
Q 45.015625 31 40.078125 35.4375 
Q 35.15625 39.890625 26.703125 39.890625 
Q 22.75 39.890625 18.8125 39.015625 
Q 14.890625 38.140625 10.796875 36.28125 
z
" id="DejaVuSans-35"/>
      </defs>
      <g transform="translate(218.053951 314.275625)rotate(-90)scale(0.1 -0.1)">
       <use xlink:href="#DejaVuSans-41"/>
       <use x="68.408203" xlink:href="#DejaVuSans-35"/>
       <use x="132.03125" xlink:href="#DejaVuSans-31"/>
      </g>
     </g>
    </g>
    <g id="xtick_12">
     <g id="line2d_12">
      <g>
       <use style="stroke:#000000;stroke-width:0.8;" x="232.367034" xlink:href="#m65ae9feacf" y="287.71"/>
      </g>
     </g>
     <g id="text_12">
      <!-- A56 -->
      <g transform="translate(235.126409 314.275625)rotate(-90)scale(0.1 -0.1)">
       <use xlink:href="#DejaVuSans-41"/>
       <use x="68.408203" xlink:href="#DejaVuSans-35"/>
       <use x="132.03125" xlink:href="#DejaVuSans-36"/>
      </g>
     </g>
    </g>
    <g id="xtick_13">
     <g id="line2d_13">
      <g>
       <use style="stroke:#000000;stroke-width:0.8;" x="249.439492" xlink:href="#m65ae9feacf" y="287.71"/>
      </g>
     </g>
     <g id="text_13">
      <!-- A61 -->
      <g transform="translate(252.198867 314.275625)rotate(-90)scale(0.1 -0.1)">
       <use xlink:href="#DejaVuSans-41"/>
       <use x="68.408203" xlink:href="#DejaVuSans-36"/>
       <use x="132.03125" xlink:href="#DejaVuSans-31"/>
      </g>
     </g>
    </g>
    <g id="xtick_14">
     <g id="line2d_14">
      <g>
       <use style="stroke:#000000;stroke-width:0.8;" x="266.511949" xlink:href="#m65ae9feacf" y="287.71"/>
      </g>
     </g>
     <g id="text_14">
      <!-- A66 -->
      <g transform="translate(269.271324 314.275625)rotate(-90)scale(0.1 -0.1)">
       <use xlink:href="#DejaVuSans-41"/>
       <use x="68.408203" xlink:href="#DejaVuSans-36"/>
       <use x="132.03125" xlink:href="#DejaVuSans-36"/>
      </g>
     </g>
    </g>
    <g id="xtick_15">
     <g id="line2d_15">
      <g>
       <use style="stroke:#000000;stroke-width:0.8;" x="283.584407" xlink:href="#m65ae9feacf" y="287.71"/>
      </g>
     </g>
     <g id="text_15">
      <!-- A71 -->
      <defs>
       <path d="M 8.203125 72.90625 
L 55.078125 72.90625 
L 55.078125 68.703125 
L 28.609375 0 
L 18.3125 0 
L 43.21875 64.59375 
L 8.203125 64.59375 
z
" id="DejaVuSans-37"/>
      </defs>
      <g transform="translate(286.343782 314.275625)rotate(-90)scale(0.1 -0.1)">
       <use xlink:href="#DejaVuSans-41"/>
       <use x="68.408203" xlink:href="#DejaVuSans-37"/>
       <use x="132.03125" xlink:href="#DejaVuSans-31"/>
      </g>
     </g>
    </g>
    <g id="xtick_16">
     <g id="line2d_16">
      <g>
       <use style="stroke:#000000;stroke-width:0.8;" x="300.656864" xlink:href="#m65ae9feacf" y="287.71"/>
      </g>
     </g>
     <g id="text_16">
      <!-- A76 -->
      <g transform="translate(303.416239 314.275625)rotate(-90)scale(0.1 -0.1)">
       <use xlink:href="#DejaVuSans-41"/>
       <use x="68.408203" xlink:href="#DejaVuSans-37"/>
       <use x="132.03125" xlink:href="#DejaVuSans-36"/>
      </g>
     </g>
    </g>
    <g id="xtick_17">
     <g id="line2d_17">
      <g>
       <use style="stroke:#000000;stroke-width:0.8;" x="317.729322" xlink:href="#m65ae9feacf" y="287.71"/>
      </g>
     </g>
     <g id="text_17">
      <!-- A81 -->
      <defs>
       <path d="M 31.78125 34.625 
Q 24.75 34.625 20.71875 30.859375 
Q 16.703125 27.09375 16.703125 20.515625 
Q 16.703125 13.921875 20.71875 10.15625 
Q 24.75 6.390625 31.78125 6.390625 
Q 38.8125 6.390625 42.859375 10.171875 
Q 46.921875 13.96875 46.921875 20.515625 
Q 46.921875 27.09375 42.890625 30.859375 
Q 38.875 34.625 31.78125 34.625 
z
M 21.921875 38.8125 
Q 15.578125 40.375 12.03125 44.71875 
Q 8.5 49.078125 8.5 55.328125 
Q 8.5 64.0625 14.71875 69.140625 
Q 20.953125 74.21875 31.78125 74.21875 
Q 42.671875 74.21875 48.875 69.140625 
Q 55.078125 64.0625 55.078125 55.328125 
Q 55.078125 49.078125 51.53125 44.71875 
Q 48 40.375 41.703125 38.8125 
Q 48.828125 37.15625 52.796875 32.3125 
Q 56.78125 27.484375 56.78125 20.515625 
Q 56.78125 9.90625 50.3125 4.234375 
Q 43.84375 -1.421875 31.78125 -1.421875 
Q 19.734375 -1.421875 13.25 4.234375 
Q 6.78125 9.90625 6.78125 20.515625 
Q 6.78125 27.484375 10.78125 32.3125 
Q 14.796875 37.15625 21.921875 38.8125 
z
M 18.3125 54.390625 
Q 18.3125 48.734375 21.84375 45.5625 
Q 25.390625 42.390625 31.78125 42.390625 
Q 38.140625 42.390625 41.71875 45.5625 
Q 45.3125 48.734375 45.3125 54.390625 
Q 45.3125 60.0625 41.71875 63.234375 
Q 38.140625 66.40625 31.78125 66.40625 
Q 25.390625 66.40625 21.84375 63.234375 
Q 18.3125 60.0625 18.3125 54.390625 
z
" id="DejaVuSans-38"/>
      </defs>
      <g transform="translate(320.488697 314.275625)rotate(-90)scale(0.1 -0.1)">
       <use xlink:href="#DejaVuSans-41"/>
       <use x="68.408203" xlink:href="#DejaVuSans-38"/>
       <use x="132.03125" xlink:href="#DejaVuSans-31"/>
      </g>
     </g>
    </g>
    <g id="xtick_18">
     <g id="line2d_18">
      <g>
       <use style="stroke:#000000;stroke-width:0.8;" x="334.80178" xlink:href="#m65ae9feacf" y="287.71"/>
      </g>
     </g>
     <g id="text_18">
      <!-- A86 -->
      <g transform="translate(337.561155 314.275625)rotate(-90)scale(0.1 -0.1)">
       <use xlink:href="#DejaVuSans-41"/>
       <use x="68.408203" xlink:href="#DejaVuSans-38"/>
       <use x="132.03125" xlink:href="#DejaVuSans-36"/>
      </g>
     </g>
    </g>
    <g id="xtick_19">
     <g id="line2d_19">
      <g>
       <use style="stroke:#000000;stroke-width:0.8;" x="351.874237" xlink:href="#m65ae9feacf" y="287.71"/>
      </g>
     </g>
     <g id="text_19">
      <!-- A91 -->
      <defs>
       <path d="M 10.984375 1.515625 
L 10.984375 10.5 
Q 14.703125 8.734375 18.5 7.8125 
Q 22.3125 6.890625 25.984375 6.890625 
Q 35.75 6.890625 40.890625 13.453125 
Q 46.046875 20.015625 46.78125 33.40625 
Q 43.953125 29.203125 39.59375 26.953125 
Q 35.25 24.703125 29.984375 24.703125 
Q 19.046875 24.703125 12.671875 31.3125 
Q 6.296875 37.9375 6.296875 49.421875 
Q 6.296875 60.640625 12.9375 67.421875 
Q 19.578125 74.21875 30.609375 74.21875 
Q 43.265625 74.21875 49.921875 64.515625 
Q 56.59375 54.828125 56.59375 36.375 
Q 56.59375 19.140625 48.40625 8.859375 
Q 40.234375 -1.421875 26.421875 -1.421875 
Q 22.703125 -1.421875 18.890625 -0.6875 
Q 15.09375 0.046875 10.984375 1.515625 
z
M 30.609375 32.421875 
Q 37.25 32.421875 41.125 36.953125 
Q 45.015625 41.5 45.015625 49.421875 
Q 45.015625 57.28125 41.125 61.84375 
Q 37.25 66.40625 30.609375 66.40625 
Q 23.96875 66.40625 20.09375 61.84375 
Q 16.21875 57.28125 16.21875 49.421875 
Q 16.21875 41.5 20.09375 36.953125 
Q 23.96875 32.421875 30.609375 32.421875 
z
" id="DejaVuSans-39"/>
      </defs>
      <g transform="translate(354.633612 314.275625)rotate(-90)scale(0.1 -0.1)">
       <use xlink:href="#DejaVuSans-41"/>
       <use x="68.408203" xlink:href="#DejaVuSans-39"/>
       <use x="132.03125" xlink:href="#DejaVuSans-31"/>
      </g>
     </g>
    </g>
    <g id="xtick_20">
     <g id="line2d_20">
      <g>
       <use style="stroke:#000000;stroke-width:0.8;" x="368.946695" xlink:href="#m65ae9feacf" y="287.71"/>
      </g>
     </g>
     <g id="text_20">
      <!-- A96 -->
      <g transform="translate(371.70607 314.275625)rotate(-90)scale(0.1 -0.1)">
       <use xlink:href="#DejaVuSans-41"/>
       <use x="68.408203" xlink:href="#DejaVuSans-39"/>
       <use x="132.03125" xlink:href="#DejaVuSans-36"/>
      </g>
     </g>
    </g>
    <g id="xtick_21">
     <g id="line2d_21">
      <g>
       <use style="stroke:#000000;stroke-width:0.8;" x="386.019153" xlink:href="#m65ae9feacf" y="287.71"/>
      </g>
     </g>
     <g id="text_21">
      <!-- A101 -->
      <defs>
       <path d="M 31.78125 66.40625 
Q 24.171875 66.40625 20.328125 58.90625 
Q 16.5 51.421875 16.5 36.375 
Q 16.5 21.390625 20.328125 13.890625 
Q 24.171875 6.390625 31.78125 6.390625 
Q 39.453125 6.390625 43.28125 13.890625 
Q 47.125 21.390625 47.125 36.375 
Q 47.125 51.421875 43.28125 58.90625 
Q 39.453125 66.40625 31.78125 66.40625 
z
M 31.78125 74.21875 
Q 44.046875 74.21875 50.515625 64.515625 
Q 56.984375 54.828125 56.984375 36.375 
Q 56.984375 17.96875 50.515625 8.265625 
Q 44.046875 -1.421875 31.78125 -1.421875 
Q 19.53125 -1.421875 13.0625 8.265625 
Q 6.59375 17.96875 6.59375 36.375 
Q 6.59375 54.828125 13.0625 64.515625 
Q 19.53125 74.21875 31.78125 74.21875 
z
" id="DejaVuSans-30"/>
      </defs>
      <g transform="translate(388.778528 320.638125)rotate(-90)scale(0.1 -0.1)">
       <use xlink:href="#DejaVuSans-41"/>
       <use x="68.408203" xlink:href="#DejaVuSans-31"/>
       <use x="132.03125" xlink:href="#DejaVuSans-30"/>
       <use x="195.654297" xlink:href="#DejaVuSans-31"/>
      </g>
     </g>
    </g>
    <g id="xtick_22">
     <g id="line2d_22">
      <g>
       <use style="stroke:#000000;stroke-width:0.8;" x="403.09161" xlink:href="#m65ae9feacf" y="287.71"/>
      </g>
     </g>
     <g id="text_22">
      <!-- A106 -->
      <g transform="translate(405.850985 320.638125)rotate(-90)scale(0.1 -0.1)">
       <use xlink:href="#DejaVuSans-41"/>
       <use x="68.408203" xlink:href="#DejaVuSans-31"/>
       <use x="132.03125" xlink:href="#DejaVuSans-30"/>
       <use x="195.654297" xlink:href="#DejaVuSans-36"/>
      </g>
     </g>
    </g>
    <g id="xtick_23">
     <g id="line2d_23">
      <g>
       <use style="stroke:#000000;stroke-width:0.8;" x="420.164068" xlink:href="#m65ae9feacf" y="287.71"/>
      </g>
     </g>
     <g id="text_23">
      <!-- A111 -->
      <g transform="translate(422.923443 320.638125)rotate(-90)scale(0.1 -0.1)">
       <use xlink:href="#DejaVuSans-41"/>
       <use x="68.408203" xlink:href="#DejaVuSans-31"/>
       <use x="132.03125" xlink:href="#DejaVuSans-31"/>
       <use x="195.654297" xlink:href="#DejaVuSans-31"/>
      </g>
     </g>
    </g>
    <g id="xtick_24">
     <g id="line2d_24">
      <g>
       <use style="stroke:#000000;stroke-width:0.8;" x="437.236525" xlink:href="#m65ae9feacf" y="287.71"/>
      </g>
     </g>
     <g id="text_24">
      <!-- A116 -->
      <g transform="translate(439.9959 320.638125)rotate(-90)scale(0.1 -0.1)">
       <use xlink:href="#DejaVuSans-41"/>
       <use x="68.408203" xlink:href="#DejaVuSans-31"/>
       <use x="132.03125" xlink:href="#DejaVuSans-31"/>
       <use x="195.654297" xlink:href="#DejaVuSans-36"/>
      </g>
     </g>
    </g>
    <g id="text_25">
     <!-- Residue index -->
     <defs>
      <path d="M 44.390625 34.1875 
Q 47.5625 33.109375 50.5625 29.59375 
Q 53.5625 26.078125 56.59375 19.921875 
L 66.609375 0 
L 56 0 
L 46.6875 18.703125 
Q 43.0625 26.03125 39.671875 28.421875 
Q 36.28125 30.8125 30.421875 30.8125 
L 19.671875 30.8125 
L 19.671875 0 
L 9.8125 0 
L 9.8125 72.90625 
L 32.078125 72.90625 
Q 44.578125 72.90625 50.734375 67.671875 
Q 56.890625 62.453125 56.890625 51.90625 
Q 56.890625 45.015625 53.6875 40.46875 
Q 50.484375 35.9375 44.390625 34.1875 
z
M 19.671875 64.796875 
L 19.671875 38.921875 
L 32.078125 38.921875 
Q 39.203125 38.921875 42.84375 42.21875 
Q 46.484375 45.515625 46.484375 51.90625 
Q 46.484375 58.296875 42.84375 61.546875 
Q 39.203125 64.796875 32.078125 64.796875 
z
" id="DejaVuSans-52"/>
      <path d="M 56.203125 29.59375 
L 56.203125 25.203125 
L 14.890625 25.203125 
Q 15.484375 15.921875 20.484375 11.0625 
Q 25.484375 6.203125 34.421875 6.203125 
Q 39.59375 6.203125 44.453125 7.46875 
Q 49.3125 8.734375 54.109375 11.28125 
L 54.109375 2.78125 
Q 49.265625 0.734375 44.1875 -0.34375 
Q 39.109375 -1.421875 33.890625 -1.421875 
Q 20.796875 -1.421875 13.15625 6.1875 
Q 5.515625 13.8125 5.515625 26.8125 
Q 5.515625 40.234375 12.765625 48.109375 
Q 20.015625 56 32.328125 56 
Q 43.359375 56 49.78125 48.890625 
Q 56.203125 41.796875 56.203125 29.59375 
z
M 47.21875 32.234375 
Q 47.125 39.59375 43.09375 43.984375 
Q 39.0625 48.390625 32.421875 48.390625 
Q 24.90625 48.390625 20.390625 44.140625 
Q 15.875 39.890625 15.1875 32.171875 
z
" id="DejaVuSans-65"/>
      <path d="M 44.28125 53.078125 
L 44.28125 44.578125 
Q 40.484375 46.53125 36.375 47.5 
Q 32.28125 48.484375 27.875 48.484375 
Q 21.1875 48.484375 17.84375 46.4375 
Q 14.5 44.390625 14.5 40.28125 
Q 14.5 37.15625 16.890625 35.375 
Q 19.28125 33.59375 26.515625 31.984375 
L 29.59375 31.296875 
Q 39.15625 29.25 43.1875 25.515625 
Q 47.21875 21.78125 47.21875 15.09375 
Q 47.21875 7.46875 41.1875 3.015625 
Q 35.15625 -1.421875 24.609375 -1.421875 
Q 20.21875 -1.421875 15.453125 -0.5625 
Q 10.6875 0.296875 5.421875 2 
L 5.421875 11.28125 
Q 10.40625 8.6875 15.234375 7.390625 
Q 20.0625 6.109375 24.8125 6.109375 
Q 31.15625 6.109375 34.5625 8.28125 
Q 37.984375 10.453125 37.984375 14.40625 
Q 37.984375 18.0625 35.515625 20.015625 
Q 33.0625 21.96875 24.703125 23.78125 
L 21.578125 24.515625 
Q 13.234375 26.265625 9.515625 29.90625 
Q 5.8125 33.546875 5.8125 39.890625 
Q 5.8125 47.609375 11.28125 51.796875 
Q 16.75 56 26.8125 56 
Q 31.78125 56 36.171875 55.265625 
Q 40.578125 54.546875 44.28125 53.078125 
z
" id="DejaVuSans-73"/>
      <path d="M 9.421875 54.6875 
L 18.40625 54.6875 
L 18.40625 0 
L 9.421875 0 
z
M 9.421875 75.984375 
L 18.40625 75.984375 
L 18.40625 64.59375 
L 9.421875 64.59375 
z
" id="DejaVuSans-69"/>
      <path d="M 45.40625 46.390625 
L 45.40625 75.984375 
L 54.390625 75.984375 
L 54.390625 0 
L 45.40625 0 
L 45.40625 8.203125 
Q 42.578125 3.328125 38.25 0.953125 
Q 33.9375 -1.421875 27.875 -1.421875 
Q 17.96875 -1.421875 11.734375 6.484375 
Q 5.515625 14.40625 5.515625 27.296875 
Q 5.515625 40.1875 11.734375 48.09375 
Q 17.96875 56 27.875 56 
Q 33.9375 56 38.25 53.625 
Q 42.578125 51.265625 45.40625 46.390625 
z
M 14.796875 27.296875 
Q 14.796875 17.390625 18.875 11.75 
Q 22.953125 6.109375 30.078125 6.109375 
Q 37.203125 6.109375 41.296875 11.75 
Q 45.40625 17.390625 45.40625 27.296875 
Q 45.40625 37.203125 41.296875 42.84375 
Q 37.203125 48.484375 30.078125 48.484375 
Q 22.953125 48.484375 18.875 42.84375 
Q 14.796875 37.203125 14.796875 27.296875 
z
" id="DejaVuSans-64"/>
      <path d="M 8.5 21.578125 
L 8.5 54.6875 
L 17.484375 54.6875 
L 17.484375 21.921875 
Q 17.484375 14.15625 20.5 10.265625 
Q 23.53125 6.390625 29.59375 6.390625 
Q 36.859375 6.390625 41.078125 11.03125 
Q 45.3125 15.671875 45.3125 23.6875 
L 45.3125 54.6875 
L 54.296875 54.6875 
L 54.296875 0 
L 45.3125 0 
L 45.3125 8.40625 
Q 42.046875 3.421875 37.71875 1 
Q 33.40625 -1.421875 27.6875 -1.421875 
Q 18.265625 -1.421875 13.375 4.4375 
Q 8.5 10.296875 8.5 21.578125 
z
M 31.109375 56 
z
" id="DejaVuSans-75"/>
      <path id="DejaVuSans-20"/>
      <path d="M 54.890625 33.015625 
L 54.890625 0 
L 45.90625 0 
L 45.90625 32.71875 
Q 45.90625 40.484375 42.875 44.328125 
Q 39.84375 48.1875 33.796875 48.1875 
Q 26.515625 48.1875 22.3125 43.546875 
Q 18.109375 38.921875 18.109375 30.90625 
L 18.109375 0 
L 9.078125 0 
L 9.078125 54.6875 
L 18.109375 54.6875 
L 18.109375 46.1875 
Q 21.34375 51.125 25.703125 53.5625 
Q 30.078125 56 35.796875 56 
Q 45.21875 56 50.046875 50.171875 
Q 54.890625 44.34375 54.890625 33.015625 
z
" id="DejaVuSans-6e"/>
      <path d="M 54.890625 54.6875 
L 35.109375 28.078125 
L 55.90625 0 
L 45.3125 0 
L 29.390625 21.484375 
L 13.484375 0 
L 2.875 0 
L 24.125 28.609375 
L 4.6875 54.6875 
L 15.28125 54.6875 
L 29.78125 35.203125 
L 44.28125 54.6875 
z
" id="DejaVuSans-78"/>
     </defs>
     <g transform="translate(210.707813 332.236562)scale(0.1 -0.1)">
      <use xlink:href="#DejaVuSans-52"/>
      <use x="69.419922" xlink:href="#DejaVuSans-65"/>
      <use x="130.943359" xlink:href="#DejaVuSans-73"/>
      <use x="183.042969" xlink:href="#DejaVuSans-69"/>
      <use x="210.826172" xlink:href="#DejaVuSans-64"/>
      <use x="274.302734" xlink:href="#DejaVuSans-75"/>
      <use x="337.681641" xlink:href="#DejaVuSans-65"/>
      <use x="399.205078" xlink:href="#DejaVuSans-20"/>
      <use x="430.992188" xlink:href="#DejaVuSans-69"/>
      <use x="458.775391" xlink:href="#DejaVuSans-6e"/>
      <use x="522.154297" xlink:href="#DejaVuSans-64"/>
      <use x="585.630859" xlink:href="#DejaVuSans-65"/>
      <use x="647.138672" xlink:href="#DejaVuSans-78"/>
     </g>
    </g>
   </g>
   <g id="matplotlib.axis_2">
    <g id="ytick_1">
     <g id="line2d_25">
      <defs>
       <path d="M 0 0 
L -3.5 0 
" id="m8ac3cff6ca" style="stroke:#000000;stroke-width:0.8;"/>
      </defs>
      <g>
       <use style="stroke:#000000;stroke-width:0.8;" x="44.57" xlink:href="#m8ac3cff6ca" y="278.649818"/>
      </g>
     </g>
     <g id="text_26">
      <!-- 0 -->
      <g transform="translate(31.2075 282.449037)scale(0.1 -0.1)">
       <use xlink:href="#DejaVuSans-30"/>
      </g>
     </g>
    </g>
    <g id="ytick_2">
     <g id="line2d_26">
      <g>
       <use style="stroke:#000000;stroke-width:0.8;" x="44.57" xlink:href="#m8ac3cff6ca" y="237.645913"/>
      </g>
     </g>
     <g id="text_27">
      <!-- 2 -->
      <g transform="translate(31.2075 241.445132)scale(0.1 -0.1)">
       <use xlink:href="#DejaVuSans-32"/>
      </g>
     </g>
    </g>
    <g id="ytick_3">
     <g id="line2d_27">
      <g>
       <use style="stroke:#000000;stroke-width:0.8;" x="44.57" xlink:href="#m8ac3cff6ca" y="196.642009"/>
      </g>
     </g>
     <g id="text_28">
      <!-- 4 -->
      <g transform="translate(31.2075 200.441228)scale(0.1 -0.1)">
       <use xlink:href="#DejaVuSans-34"/>
      </g>
     </g>
    </g>
    <g id="ytick_4">
     <g id="line2d_28">
      <g>
       <use style="stroke:#000000;stroke-width:0.8;" x="44.57" xlink:href="#m8ac3cff6ca" y="155.638105"/>
      </g>
     </g>
     <g id="text_29">
      <!-- 6 -->
      <g transform="translate(31.2075 159.437323)scale(0.1 -0.1)">
       <use xlink:href="#DejaVuSans-36"/>
      </g>
     </g>
    </g>
    <g id="ytick_5">
     <g id="line2d_29">
      <g>
       <use style="stroke:#000000;stroke-width:0.8;" x="44.57" xlink:href="#m8ac3cff6ca" y="114.6342"/>
      </g>
     </g>
     <g id="text_30">
      <!-- 8 -->
      <g transform="translate(31.2075 118.433419)scale(0.1 -0.1)">
       <use xlink:href="#DejaVuSans-38"/>
      </g>
     </g>
    </g>
    <g id="ytick_6">
     <g id="line2d_30">
      <g>
       <use style="stroke:#000000;stroke-width:0.8;" x="44.57" xlink:href="#m8ac3cff6ca" y="73.630296"/>
      </g>
     </g>
     <g id="text_31">
      <!-- 10 -->
      <g transform="translate(24.845 77.429515)scale(0.1 -0.1)">
       <use xlink:href="#DejaVuSans-31"/>
       <use x="63.623047" xlink:href="#DejaVuSans-30"/>
      </g>
     </g>
    </g>
    <g id="ytick_7">
     <g id="line2d_31">
      <g>
       <use style="stroke:#000000;stroke-width:0.8;" x="44.57" xlink:href="#m8ac3cff6ca" y="32.626391"/>
      </g>
     </g>
     <g id="text_32">
      <!-- 12 -->
      <g transform="translate(24.845 36.42561)scale(0.1 -0.1)">
       <use xlink:href="#DejaVuSans-31"/>
       <use x="63.623047" xlink:href="#DejaVuSans-32"/>
      </g>
     </g>
    </g>
    <g id="text_33">
     <!-- RMSF -->
     <defs>
      <path d="M 9.8125 72.90625 
L 24.515625 72.90625 
L 43.109375 23.296875 
L 61.8125 72.90625 
L 76.515625 72.90625 
L 76.515625 0 
L 66.890625 0 
L 66.890625 64.015625 
L 48.09375 14.015625 
L 38.1875 14.015625 
L 19.390625 64.015625 
L 19.390625 0 
L 9.8125 0 
z
" id="DejaVuSans-4d"/>
      <path d="M 53.515625 70.515625 
L 53.515625 60.890625 
Q 47.90625 63.578125 42.921875 64.890625 
Q 37.9375 66.21875 33.296875 66.21875 
Q 25.25 66.21875 20.875 63.09375 
Q 16.5 59.96875 16.5 54.203125 
Q 16.5 49.359375 19.40625 46.890625 
Q 22.3125 44.4375 30.421875 42.921875 
L 36.375 41.703125 
Q 47.40625 39.59375 52.65625 34.296875 
Q 57.90625 29 57.90625 20.125 
Q 57.90625 9.515625 50.796875 4.046875 
Q 43.703125 -1.421875 29.984375 -1.421875 
Q 24.8125 -1.421875 18.96875 -0.25 
Q 13.140625 0.921875 6.890625 3.21875 
L 6.890625 13.375 
Q 12.890625 10.015625 18.65625 8.296875 
Q 24.421875 6.59375 29.984375 6.59375 
Q 38.421875 6.59375 43.015625 9.90625 
Q 47.609375 13.234375 47.609375 19.390625 
Q 47.609375 24.75 44.3125 27.78125 
Q 41.015625 30.8125 33.5 32.328125 
L 27.484375 33.5 
Q 16.453125 35.6875 11.515625 40.375 
Q 6.59375 45.0625 6.59375 53.421875 
Q 6.59375 63.09375 13.40625 68.65625 
Q 20.21875 74.21875 32.171875 74.21875 
Q 37.3125 74.21875 42.625 73.28125 
Q 47.953125 72.359375 53.515625 70.515625 
z
" id="DejaVuSans-53"/>
      <path d="M 9.8125 72.90625 
L 51.703125 72.90625 
L 51.703125 64.59375 
L 19.671875 64.59375 
L 19.671875 43.109375 
L 48.578125 43.109375 
L 48.578125 34.8125 
L 19.671875 34.8125 
L 19.671875 0 
L 9.8125 0 
z
" id="DejaVuSans-46"/>
     </defs>
     <g transform="translate(18.765313 164.353281)rotate(-90)scale(0.1 -0.1)">
      <use xlink:href="#DejaVuSans-52"/>
      <use x="69.482422" xlink:href="#DejaVuSans-4d"/>
      <use x="155.761719" xlink:href="#DejaVuSans-53"/>
      <use x="219.238281" xlink:href="#DejaVuSans-46"/>
     </g>
    </g>
   </g>
   <g id="line2d_32">
    <path clip-path="url(#p355c0de56b)" d="M 44.57 259.243349 
L 47.984492 242.714953 
L 51.398983 242.322098 
L 54.813475 246.59798 
L 58.227966 239.817891 
L 61.642458 244.508264 
L 65.056949 253.394676 
L 68.471441 247.008043 
L 71.885932 240.885501 
L 75.300424 232.410944 
L 78.714915 232.059632 
L 82.129407 246.592283 
L 85.543898 247.1656 
L 88.95839 252.287731 
L 92.372881 263.236 
L 95.787373 266.722064 
L 99.201864 269.232687 
L 102.616356 268.548288 
L 106.030847 270.528566 
L 109.445339 271.067633 
L 112.859831 269.775329 
L 116.274322 268.725676 
L 119.688814 268.441063 
L 123.103305 271.117431 
L 126.517797 272.144127 
L 129.932288 271.550813 
L 133.34678 272.568202 
L 136.761271 271.088482 
L 140.175763 271.680363 
L 143.590254 271.571542 
L 147.004746 271.002334 
L 150.419237 270.871718 
L 153.833729 271.666563 
L 157.24822 273.437901 
L 160.662712 273.223115 
L 164.077203 272.134532 
L 167.491695 272.266901 
L 170.906186 274.154632 
L 174.320678 273.415974 
L 177.735169 271.882708 
L 181.149661 269.884452 
L 184.564153 271.608424 
L 187.978644 273.563604 
L 191.393136 271.269477 
L 194.807627 271.785007 
L 198.222119 271.173441 
L 201.63661 269.512713 
L 205.051102 271.58734 
L 208.465593 272.363732 
L 211.880085 271.959105 
L 215.294576 271.967647 
L 218.709068 272.777034 
L 222.123559 270.815305 
L 225.538051 270.751489 
L 228.952542 271.186499 
L 232.367034 270.808861 
L 235.781525 273.764975 
L 239.196017 272.440673 
L 242.610508 274.068857 
L 246.025 271.893543 
L 249.439492 272.809151 
L 252.853983 273.603426 
L 256.268475 272.525944 
L 259.682966 270.490602 
L 263.097458 269.132146 
L 266.511949 274.003836 
L 269.926441 274.308117 
L 273.340932 274.386285 
L 276.755424 273.343416 
L 280.169915 267.935605 
L 283.584407 266.092812 
L 286.998898 270.507891 
L 290.41339 274.47046 
L 293.827881 275.214783 
L 297.242373 275.237727 
L 300.656864 275.05071 
L 304.071356 271.868929 
L 307.485847 271.099536 
L 310.900339 268.507911 
L 314.314831 271.184567 
L 317.729322 271.722293 
L 321.143814 273.798896 
L 324.558305 273.205586 
L 327.972797 272.765909 
L 331.387288 271.097726 
L 334.80178 272.196734 
L 338.216271 274.175521 
L 341.630763 273.333826 
L 345.045254 274.080643 
L 348.459746 274.925859 
L 351.874237 274.713057 
L 355.288729 274.7048 
L 358.70322 271.435409 
L 362.117712 272.482973 
L 365.532203 270.594785 
L 368.946695 271.796098 
L 372.361186 270.682008 
L 375.775678 271.17475 
L 379.190169 270.682715 
L 382.604661 271.846148 
L 386.019153 272.725664 
L 389.433644 271.484243 
L 392.848136 272.486417 
L 396.262627 272.92887 
L 399.677119 268.958075 
L 403.09161 269.850767 
L 406.506102 271.003477 
L 409.920593 269.377406 
L 413.335085 272.719542 
L 416.749576 271.285206 
L 420.164068 266.183368 
L 423.578559 261.515136 
L 426.993051 245.401488 
L 430.407542 200.454109 
L 433.822034 156.153288 
L 437.236525 112.130521 
L 440.651017 69.8509 
L 444.065508 25.792273 
L 447.48 36.831002 
" style="fill:none;stroke:#666666;stroke-dasharray:1,1.65;stroke-dashoffset:0;"/>
    <defs>
     <path d="M 0 0.5 
C 0.132602 0.5 0.25979 0.447317 0.353553 0.353553 
C 0.447317 0.25979 0.5 0.132602 0.5 0 
C 0.5 -0.132602 0.447317 -0.25979 0.353553 -0.353553 
C 0.25979 -0.447317 0.132602 -0.5 0 -0.5 
C -0.132602 -0.5 -0.25979 -0.447317 -0.353553 -0.353553 
C -0.447317 -0.25979 -0.5 -0.132602 -0.5 0 
C -0.5 0.132602 -0.447317 0.25979 -0.353553 0.353553 
C -0.25979 0.447317 -0.132602 0.5 0 0.5 
z
" id="m5633ec7bb6" style="stroke:#666666;"/>
    </defs>
    <g clip-path="url(#p355c0de56b)">
     <use style="fill:#666666;stroke:#666666;" x="44.57" xlink:href="#m5633ec7bb6" y="259.243349"/>
     <use style="fill:#666666;stroke:#666666;" x="47.984492" xlink:href="#m5633ec7bb6" y="242.714953"/>
     <use style="fill:#666666;stroke:#666666;" x="51.398983" xlink:href="#m5633ec7bb6" y="242.322098"/>
     <use style="fill:#666666;stroke:#666666;" x="54.813475" xlink:href="#m5633ec7bb6" y="246.59798"/>
     <use style="fill:#666666;stroke:#666666;" x="58.227966" xlink:href="#m5633ec7bb6" y="239.817891"/>
     <use style="fill:#666666;stroke:#666666;" x="61.642458" xlink:href="#m5633ec7bb6" y="244.508264"/>
     <use style="fill:#666666;stroke:#666666;" x="65.056949" xlink:href="#m5633ec7bb6" y="253.394676"/>
     <use style="fill:#666666;stroke:#666666;" x="68.471441" xlink:href="#m5633ec7bb6" y="247.008043"/>
     <use style="fill:#666666;stroke:#666666;" x="71.885932" xlink:href="#m5633ec7bb6" y="240.885501"/>
     <use style="fill:#666666;stroke:#666666;" x="75.300424" xlink:href="#m5633ec7bb6" y="232.410944"/>
     <use style="fill:#666666;stroke:#666666;" x="78.714915" xlink:href="#m5633ec7bb6" y="232.059632"/>
     <use style="fill:#666666;stroke:#666666;" x="82.129407" xlink:href="#m5633ec7bb6" y="246.592283"/>
     <use style="fill:#666666;stroke:#666666;" x="85.543898" xlink:href="#m5633ec7bb6" y="247.1656"/>
     <use style="fill:#666666;stroke:#666666;" x="88.95839" xlink:href="#m5633ec7bb6" y="252.287731"/>
     <use style="fill:#666666;stroke:#666666;" x="92.372881" xlink:href="#m5633ec7bb6" y="263.236"/>
     <use style="fill:#666666;stroke:#666666;" x="95.787373" xlink:href="#m5633ec7bb6" y="266.722064"/>
     <use style="fill:#666666;stroke:#666666;" x="99.201864" xlink:href="#m5633ec7bb6" y="269.232687"/>
     <use style="fill:#666666;stroke:#666666;" x="102.616356" xlink:href="#m5633ec7bb6" y="268.548288"/>
     <use style="fill:#666666;stroke:#666666;" x="106.030847" xlink:href="#m5633ec7bb6" y="270.528566"/>
     <use style="fill:#666666;stroke:#666666;" x="109.445339" xlink:href="#m5633ec7bb6" y="271.067633"/>
     <use style="fill:#666666;stroke:#666666;" x="112.859831" xlink:href="#m5633ec7bb6" y="269.775329"/>
     <use style="fill:#666666;stroke:#666666;" x="116.274322" xlink:href="#m5633ec7bb6" y="268.725676"/>
     <use style="fill:#666666;stroke:#666666;" x="119.688814" xlink:href="#m5633ec7bb6" y="268.441063"/>
     <use style="fill:#666666;stroke:#666666;" x="123.103305" xlink:href="#m5633ec7bb6" y="271.117431"/>
     <use style="fill:#666666;stroke:#666666;" x="126.517797" xlink:href="#m5633ec7bb6" y="272.144127"/>
     <use style="fill:#666666;stroke:#666666;" x="129.932288" xlink:href="#m5633ec7bb6" y="271.550813"/>
     <use style="fill:#666666;stroke:#666666;" x="133.34678" xlink:href="#m5633ec7bb6" y="272.568202"/>
     <use style="fill:#666666;stroke:#666666;" x="136.761271" xlink:href="#m5633ec7bb6" y="271.088482"/>
     <use style="fill:#666666;stroke:#666666;" x="140.175763" xlink:href="#m5633ec7bb6" y="271.680363"/>
     <use style="fill:#666666;stroke:#666666;" x="143.590254" xlink:href="#m5633ec7bb6" y="271.571542"/>
     <use style="fill:#666666;stroke:#666666;" x="147.004746" xlink:href="#m5633ec7bb6" y="271.002334"/>
     <use style="fill:#666666;stroke:#666666;" x="150.419237" xlink:href="#m5633ec7bb6" y="270.871718"/>
     <use style="fill:#666666;stroke:#666666;" x="153.833729" xlink:href="#m5633ec7bb6" y="271.666563"/>
     <use style="fill:#666666;stroke:#666666;" x="157.24822" xlink:href="#m5633ec7bb6" y="273.437901"/>
     <use style="fill:#666666;stroke:#666666;" x="160.662712" xlink:href="#m5633ec7bb6" y="273.223115"/>
     <use style="fill:#666666;stroke:#666666;" x="164.077203" xlink:href="#m5633ec7bb6" y="272.134532"/>
     <use style="fill:#666666;stroke:#666666;" x="167.491695" xlink:href="#m5633ec7bb6" y="272.266901"/>
     <use style="fill:#666666;stroke:#666666;" x="170.906186" xlink:href="#m5633ec7bb6" y="274.154632"/>
     <use style="fill:#666666;stroke:#666666;" x="174.320678" xlink:href="#m5633ec7bb6" y="273.415974"/>
     <use style="fill:#666666;stroke:#666666;" x="177.735169" xlink:href="#m5633ec7bb6" y="271.882708"/>
     <use style="fill:#666666;stroke:#666666;" x="181.149661" xlink:href="#m5633ec7bb6" y="269.884452"/>
     <use style="fill:#666666;stroke:#666666;" x="184.564153" xlink:href="#m5633ec7bb6" y="271.608424"/>
     <use style="fill:#666666;stroke:#666666;" x="187.978644" xlink:href="#m5633ec7bb6" y="273.563604"/>
     <use style="fill:#666666;stroke:#666666;" x="191.393136" xlink:href="#m5633ec7bb6" y="271.269477"/>
     <use style="fill:#666666;stroke:#666666;" x="194.807627" xlink:href="#m5633ec7bb6" y="271.785007"/>
     <use style="fill:#666666;stroke:#666666;" x="198.222119" xlink:href="#m5633ec7bb6" y="271.173441"/>
     <use style="fill:#666666;stroke:#666666;" x="201.63661" xlink:href="#m5633ec7bb6" y="269.512713"/>
     <use style="fill:#666666;stroke:#666666;" x="205.051102" xlink:href="#m5633ec7bb6" y="271.58734"/>
     <use style="fill:#666666;stroke:#666666;" x="208.465593" xlink:href="#m5633ec7bb6" y="272.363732"/>
     <use style="fill:#666666;stroke:#666666;" x="211.880085" xlink:href="#m5633ec7bb6" y="271.959105"/>
     <use style="fill:#666666;stroke:#666666;" x="215.294576" xlink:href="#m5633ec7bb6" y="271.967647"/>
     <use style="fill:#666666;stroke:#666666;" x="218.709068" xlink:href="#m5633ec7bb6" y="272.777034"/>
     <use style="fill:#666666;stroke:#666666;" x="222.123559" xlink:href="#m5633ec7bb6" y="270.815305"/>
     <use style="fill:#666666;stroke:#666666;" x="225.538051" xlink:href="#m5633ec7bb6" y="270.751489"/>
     <use style="fill:#666666;stroke:#666666;" x="228.952542" xlink:href="#m5633ec7bb6" y="271.186499"/>
     <use style="fill:#666666;stroke:#666666;" x="232.367034" xlink:href="#m5633ec7bb6" y="270.808861"/>
     <use style="fill:#666666;stroke:#666666;" x="235.781525" xlink:href="#m5633ec7bb6" y="273.764975"/>
     <use style="fill:#666666;stroke:#666666;" x="239.196017" xlink:href="#m5633ec7bb6" y="272.440673"/>
     <use style="fill:#666666;stroke:#666666;" x="242.610508" xlink:href="#m5633ec7bb6" y="274.068857"/>
     <use style="fill:#666666;stroke:#666666;" x="246.025" xlink:href="#m5633ec7bb6" y="271.893543"/>
     <use style="fill:#666666;stroke:#666666;" x="249.439492" xlink:href="#m5633ec7bb6" y="272.809151"/>
     <use style="fill:#666666;stroke:#666666;" x="252.853983" xlink:href="#m5633ec7bb6" y="273.603426"/>
     <use style="fill:#666666;stroke:#666666;" x="256.268475" xlink:href="#m5633ec7bb6" y="272.525944"/>
     <use style="fill:#666666;stroke:#666666;" x="259.682966" xlink:href="#m5633ec7bb6" y="270.490602"/>
     <use style="fill:#666666;stroke:#666666;" x="263.097458" xlink:href="#m5633ec7bb6" y="269.132146"/>
     <use style="fill:#666666;stroke:#666666;" x="266.511949" xlink:href="#m5633ec7bb6" y="274.003836"/>
     <use style="fill:#666666;stroke:#666666;" x="269.926441" xlink:href="#m5633ec7bb6" y="274.308117"/>
     <use style="fill:#666666;stroke:#666666;" x="273.340932" xlink:href="#m5633ec7bb6" y="274.386285"/>
     <use style="fill:#666666;stroke:#666666;" x="276.755424" xlink:href="#m5633ec7bb6" y="273.343416"/>
     <use style="fill:#666666;stroke:#666666;" x="280.169915" xlink:href="#m5633ec7bb6" y="267.935605"/>
     <use style="fill:#666666;stroke:#666666;" x="283.584407" xlink:href="#m5633ec7bb6" y="266.092812"/>
     <use style="fill:#666666;stroke:#666666;" x="286.998898" xlink:href="#m5633ec7bb6" y="270.507891"/>
     <use style="fill:#666666;stroke:#666666;" x="290.41339" xlink:href="#m5633ec7bb6" y="274.47046"/>
     <use style="fill:#666666;stroke:#666666;" x="293.827881" xlink:href="#m5633ec7bb6" y="275.214783"/>
     <use style="fill:#666666;stroke:#666666;" x="297.242373" xlink:href="#m5633ec7bb6" y="275.237727"/>
     <use style="fill:#666666;stroke:#666666;" x="300.656864" xlink:href="#m5633ec7bb6" y="275.05071"/>
     <use style="fill:#666666;stroke:#666666;" x="304.071356" xlink:href="#m5633ec7bb6" y="271.868929"/>
     <use style="fill:#666666;stroke:#666666;" x="307.485847" xlink:href="#m5633ec7bb6" y="271.099536"/>
     <use style="fill:#666666;stroke:#666666;" x="310.900339" xlink:href="#m5633ec7bb6" y="268.507911"/>
     <use style="fill:#666666;stroke:#666666;" x="314.314831" xlink:href="#m5633ec7bb6" y="271.184567"/>
     <use style="fill:#666666;stroke:#666666;" x="317.729322" xlink:href="#m5633ec7bb6" y="271.722293"/>
     <use style="fill:#666666;stroke:#666666;" x="321.143814" xlink:href="#m5633ec7bb6" y="273.798896"/>
     <use style="fill:#666666;stroke:#666666;" x="324.558305" xlink:href="#m5633ec7bb6" y="273.205586"/>
     <use style="fill:#666666;stroke:#666666;" x="327.972797" xlink:href="#m5633ec7bb6" y="272.765909"/>
     <use style="fill:#666666;stroke:#666666;" x="331.387288" xlink:href="#m5633ec7bb6" y="271.097726"/>
     <use style="fill:#666666;stroke:#666666;" x="334.80178" xlink:href="#m5633ec7bb6" y="272.196734"/>
     <use style="fill:#666666;stroke:#666666;" x="338.216271" xlink:href="#m5633ec7bb6" y="274.175521"/>
     <use style="fill:#666666;stroke:#666666;" x="341.630763" xlink:href="#m5633ec7bb6" y="273.333826"/>
     <use style="fill:#666666;stroke:#666666;" x="345.045254" xlink:href="#m5633ec7bb6" y="274.080643"/>
     <use style="fill:#666666;stroke:#666666;" x="348.459746" xlink:href="#m5633ec7bb6" y="274.925859"/>
     <use style="fill:#666666;stroke:#666666;" x="351.874237" xlink:href="#m5633ec7bb6" y="274.713057"/>
     <use style="fill:#666666;stroke:#666666;" x="355.288729" xlink:href="#m5633ec7bb6" y="274.7048"/>
     <use style="fill:#666666;stroke:#666666;" x="358.70322" xlink:href="#m5633ec7bb6" y="271.435409"/>
     <use style="fill:#666666;stroke:#666666;" x="362.117712" xlink:href="#m5633ec7bb6" y="272.482973"/>
     <use style="fill:#666666;stroke:#666666;" x="365.532203" xlink:href="#m5633ec7bb6" y="270.594785"/>
     <use style="fill:#666666;stroke:#666666;" x="368.946695" xlink:href="#m5633ec7bb6" y="271.796098"/>
     <use style="fill:#666666;stroke:#666666;" x="372.361186" xlink:href="#m5633ec7bb6" y="270.682008"/>
     <use style="fill:#666666;stroke:#666666;" x="375.775678" xlink:href="#m5633ec7bb6" y="271.17475"/>
     <use style="fill:#666666;stroke:#666666;" x="379.190169" xlink:href="#m5633ec7bb6" y="270.682715"/>
     <use style="fill:#666666;stroke:#666666;" x="382.604661" xlink:href="#m5633ec7bb6" y="271.846148"/>
     <use style="fill:#666666;stroke:#666666;" x="386.019153" xlink:href="#m5633ec7bb6" y="272.725664"/>
     <use style="fill:#666666;stroke:#666666;" x="389.433644" xlink:href="#m5633ec7bb6" y="271.484243"/>
     <use style="fill:#666666;stroke:#666666;" x="392.848136" xlink:href="#m5633ec7bb6" y="272.486417"/>
     <use style="fill:#666666;stroke:#666666;" x="396.262627" xlink:href="#m5633ec7bb6" y="272.92887"/>
     <use style="fill:#666666;stroke:#666666;" x="399.677119" xlink:href="#m5633ec7bb6" y="268.958075"/>
     <use style="fill:#666666;stroke:#666666;" x="403.09161" xlink:href="#m5633ec7bb6" y="269.850767"/>
     <use style="fill:#666666;stroke:#666666;" x="406.506102" xlink:href="#m5633ec7bb6" y="271.003477"/>
     <use style="fill:#666666;stroke:#666666;" x="409.920593" xlink:href="#m5633ec7bb6" y="269.377406"/>
     <use style="fill:#666666;stroke:#666666;" x="413.335085" xlink:href="#m5633ec7bb6" y="272.719542"/>
     <use style="fill:#666666;stroke:#666666;" x="416.749576" xlink:href="#m5633ec7bb6" y="271.285206"/>
     <use style="fill:#666666;stroke:#666666;" x="420.164068" xlink:href="#m5633ec7bb6" y="266.183368"/>
     <use style="fill:#666666;stroke:#666666;" x="423.578559" xlink:href="#m5633ec7bb6" y="261.515136"/>
     <use style="fill:#666666;stroke:#666666;" x="426.993051" xlink:href="#m5633ec7bb6" y="245.401488"/>
     <use style="fill:#666666;stroke:#666666;" x="430.407542" xlink:href="#m5633ec7bb6" y="200.454109"/>
     <use style="fill:#666666;stroke:#666666;" x="433.822034" xlink:href="#m5633ec7bb6" y="156.153288"/>
     <use style="fill:#666666;stroke:#666666;" x="437.236525" xlink:href="#m5633ec7bb6" y="112.130521"/>
     <use style="fill:#666666;stroke:#666666;" x="440.651017" xlink:href="#m5633ec7bb6" y="69.8509"/>
     <use style="fill:#666666;stroke:#666666;" x="444.065508" xlink:href="#m5633ec7bb6" y="25.792273"/>
     <use style="fill:#666666;stroke:#666666;" x="447.48" xlink:href="#m5633ec7bb6" y="36.831002"/>
    </g>
   </g>
   <g id="patch_3">
    <path d="M 44.57 287.71 
L 44.57 13.32 
" style="fill:none;stroke:#000000;stroke-linecap:square;stroke-linejoin:miter;stroke-width:0.8;"/>
   </g>
   <g id="patch_4">
    <path d="M 447.48 287.71 
L 447.48 13.32 
" style="fill:none;stroke:#000000;stroke-linecap:square;stroke-linejoin:miter;stroke-width:0.8;"/>
   </g>
   <g id="patch_5">
    <path d="M 44.57 287.71 
L 447.48 287.71 
" style="fill:none;stroke:#000000;stroke-linecap:square;stroke-linejoin:miter;stroke-width:0.8;"/>
   </g>
   <g id="patch_6">
    <path d="M 44.57 13.32 
L 447.48 13.32 
" style="fill:none;stroke:#000000;stroke-linecap:square;stroke-linejoin:miter;stroke-width:0.8;"/>
   </g>
  </g>
 </g>
 <defs>
  <clipPath id="p355c0de56b">
   <rect height="274.39" width="402.91" x="44.57" y="13.32"/>
  </clipPath>
 </defs>
</svg>
